<svg width="5738" height="1635" viewBox="0 0 5738 1635" fill="none" xmlns="http://www.w3.org/2000/svg">
<path d="M5015.05 288.865C5052.85 277.303 5062.95 334.98 5023.54 335.596L5015.05 288.865Z" fill="#6AD7E5"/>
<path d="M5015.05 288.865C5052.85 277.303 5062.95 334.98 5023.54 335.596L5015.05 288.865Z" stroke="black" stroke-width="6" stroke-linecap="round" stroke-linejoin="round"/>
<path d="M4836.37 260.171C4806.85 230.861 4858.57 199.342 4876.3 233.583L4836.37 260.171Z" fill="#6AD7E5"/>
<path d="M4836.37 260.171C4806.85 230.861 4858.57 199.342 4876.3 233.583L4836.37 260.171Z" stroke="black" stroke-width="6" stroke-linecap="round" stroke-linejoin="round"/>
<path d="M5025.33 319.917C5031.21 318.368 5035.98 315.483 5034.39 308.684C5032.92 302.378 5027.32 301.707 5021.42 303.275L5025.33 319.917Z" fill="black"/>
<path d="M4846.82 249.343C4843.58 244.304 4842.08 239.034 4848 235.094C4853.47 231.445 4858.03 234.663 4861.28 239.702L4846.82 249.343Z" fill="black"/>
<path d="M4955.68 243.288C4992.21 259.922 5023.96 280.85 5024.88 324.798C5021.94 372.231 4995.79 412.935 4978.18 456.472C4963.06 493.863 4947.82 538.075 4915.3 564.282C4915.3 564.282 4923.26 457.154 4888 439.5C4860.31 425.628 4801.55 472.99 4798.06 439.5C4793.96 400.19 4763.67 409.974 4781.2 376.301C4802.01 336.403 4808.88 290.03 4840.74 256.25C4873.78 221.19 4914.79 228.54 4955.68 243.288Z" fill="#6AD7E5"/>
<path d="M4955.68 243.288C4992.21 259.922 5023.96 280.85 5024.88 324.798C5021.94 372.231 4995.79 412.935 4978.18 456.472C4963.06 493.863 4947.82 538.075 4915.3 564.282C4915.3 583.5 4935.76 474.126 4900.5 456.472C4872.81 442.601 4801.55 465.99 4798.06 432.5C4793.96 393.19 4763.67 409.974 4781.2 376.301C4802.01 336.403 4808.88 290.03 4840.74 256.25C4873.78 221.19 4914.79 228.54 4955.68 243.288Z" stroke="black" stroke-width="6" stroke-linecap="round" stroke-linejoin="round"/>
<path d="M4908.55 316.356C4900.95 313.662 4890.81 319.811 4891.29 328.541C4891.93 340.096 4907.93 335.11 4914.47 339.238C4922.43 343.058 4924.99 354.581 4934.82 350.383C4945.75 345.712 4939.12 333.296 4932.73 326.186L4908.55 316.356Z" fill="#F6D2A2"/>
<path d="M4908.55 316.356C4900.95 313.662 4890.81 319.811 4891.29 328.541C4891.93 340.096 4907.93 335.11 4914.47 339.238C4922.43 343.058 4924.99 354.581 4934.82 350.383C4945.75 345.712 4939.12 333.296 4932.73 326.186L4908.55 316.356Z" stroke="#231F20" stroke-width="6" stroke-linecap="round" stroke-linejoin="round"/>
<path d="M4907.81 315.567C4913.35 302.427 4938.23 311.799 4935.98 323.876C4933.75 335.935 4904.48 325.66 4907.81 315.567C4907.81 315.567 4910.49 307.501 4907.81 315.567Z" fill="black"/>
<path d="M4924.24 346.004C4921.87 351.069 4920.29 357.239 4916.81 362.219C4914.4 364.088 4911.79 363.222 4909.18 363.22C4906.44 361.387 4904.89 358.274 4905.04 354.92C4907.18 348.428 4911.05 342.959 4914.12 336.911L4924.24 346.004Z" fill="white"/>
<path d="M4924.24 346.004C4921.87 351.069 4920.29 357.239 4916.81 362.219C4914.4 364.088 4911.79 363.222 4909.18 363.22C4906.44 361.387 4904.89 358.274 4905.04 354.92C4907.18 348.428 4911.05 342.959 4914.12 336.911L4924.24 346.004Z" stroke="black" stroke-width="6" stroke-linecap="round" stroke-linejoin="round"/>
<path d="M4860.87 268.894C4853.38 306.639 4910.63 322.182 4924.67 287.276C4941.5 245.495 4872.39 223.578 4860.87 268.894" fill="white"/>
<path d="M4860.87 268.894C4853.38 306.639 4910.63 322.182 4924.67 287.276C4941.5 245.495 4872.39 223.578 4860.87 268.894" stroke="black" stroke-width="6" stroke-linecap="round" stroke-linejoin="round"/>
<path d="M4938.33 296.529C4926.5 338.429 4993.7 356.515 5003.29 313.212C5011.9 274.348 4953.19 259.458 4938.33 296.529Z" fill="white"/>
<path d="M4938.33 296.529C4926.5 338.429 4993.7 356.515 5003.29 313.212C5011.9 274.348 4953.19 259.458 4938.33 296.529Z" stroke="black" stroke-width="6" stroke-linecap="round" stroke-linejoin="round"/>
<path d="M4991.49 474.066C4990.35 472.901 4989.06 471.857 4988.71 470.154Z" fill="#C6B198"/>
<path d="M4991.49 474.066C4990.35 472.901 4989.06 471.857 4988.71 470.154" stroke="black" stroke-width="6" stroke-linecap="round" stroke-linejoin="round"/>
<path d="M4898.41 334.41C4889.92 342.323 4886.87 364.455 4904.25 354.999C4906.39 348.506 4910.26 343.038 4913.33 336.99L4898.41 334.41Z" fill="white"/>
<path d="M4898.41 334.41C4889.92 342.323 4886.87 364.455 4904.25 354.999C4906.39 348.506 4910.26 343.038 4913.33 336.99L4898.41 334.41Z" stroke="black" stroke-width="6" stroke-linecap="round" stroke-linejoin="round"/>
<path d="M4995.82 471.013C4990.76 480.52 4983.35 471.689 4980.48 466.672C4977.75 461.926 4975.42 463.769 4977.75 457.929C4979.29 454.084 4980.63 450.144 4982.63 446.48C4989.09 448.72 4995.12 453.301 4998.41 459.368C5000.1 462.497 5002.07 470.909 4995.82 471.013Z" fill="#F6D2A2"/>
<path d="M4995.82 471.013C4990.76 480.52 4983.35 471.689 4980.48 466.672C4977.75 461.926 4975.42 463.769 4977.75 457.929C4979.29 454.084 4980.63 450.144 4982.63 446.48C4989.09 448.72 4995.12 453.301 4998.41 459.368C5000.1 462.497 5002.07 470.909 4995.82 471.013Z" stroke="black" stroke-width="6" stroke-linecap="round" stroke-linejoin="round"/>
<path d="M4975.21 316.881C4976.84 322.321 4973.85 328.595 4968.58 330.916C4963.29 333.222 4957.7 330.67 4956.11 325.227C4954.48 319.787 4957.46 313.513 4962.73 311.192C4968.01 308.905 4973.61 311.438 4975.21 316.881" fill="black"/>
<path d="M4967.41 324.455C4967.76 325.819 4967.01 327.417 4965.73 328.03C4964.45 328.644 4963.13 328.043 4962.79 326.68C4962.44 325.316 4963.19 323.718 4964.47 323.105C4965.75 322.491 4967.07 323.092 4967.41 324.455Z" fill="white"/>
<path d="M4895.2 285.205C4896.86 290.674 4893.9 296.964 4888.57 299.24C4883.24 301.517 4877.54 298.929 4875.87 293.46C4874.2 287.991 4877.17 281.702 4882.5 279.425C4887.82 277.148 4893.53 279.736 4895.2 285.205Z" fill="black"/>
<path d="M4886.7 293.949C4887.06 295.293 4886.3 296.911 4885.02 297.524C4883.72 298.122 4882.38 297.507 4882.02 296.163C4881.66 294.818 4882.43 293.201 4883.7 292.587C4885.02 291.97 4886.35 292.585 4886.7 293.949Z" fill="white"/>
<path d="M4759.77 370.048C4761.4 370.154 4763.04 370.46 4764.58 369.594Z" fill="#C6B198"/>
<path d="M4759.77 370.048C4761.4 370.154 4763.04 370.46 4764.58 369.594" stroke="black" stroke-width="3" stroke-linecap="round" stroke-linejoin="round"/>
<path d="M4759.62 369.93C4755.48 379.867 4767.13 379.714 4772.89 378.621C4778.35 377.598 4778.42 380.536 4781.45 375.017C4783.45 371.387 4785.66 367.832 4787.23 363.983C4781.3 360.593 4773.86 359.029 4767.01 360.476C4763.48 361.229 4755.66 365.182 4759.62 369.93" fill="#F6D2A2"/>
<path d="M4759.62 369.93C4755.48 379.867 4767.13 379.714 4772.89 378.621C4778.35 377.598 4778.42 380.536 4781.45 375.017C4783.45 371.387 4785.66 367.832 4787.23 363.983C4781.3 360.593 4773.86 359.029 4767.01 360.476C4763.48 361.229 4755.66 365.182 4759.62 369.93" stroke="black" stroke-width="6" stroke-linecap="round" stroke-linejoin="round"/>
<rect x="248" y="208" width="1235" height="1229" rx="50" fill="#214F85"/>
<path d="M360 330C360 313.431 373.431 300 390 300H630C646.569 300 660 313.431 660 330V1344H390C373.431 1344 360 1330.57 360 1314V330Z" fill="#FF6060"/>
<path d="M716 676C716 659.431 729.431 646 746 646H985C1001.57 646 1015 659.431 1015 676V1344H716V676Z" fill="#34B6FF"/>
<path d="M1071 982C1071 965.431 1084.43 952 1101 952H1341C1357.57 952 1371 965.431 1371 982V1314C1371 1330.57 1357.57 1344 1341 1344H1071V982Z" fill="#FFE664"/>
<path d="M2294.68 1041.36H2316.58V1111.82C2316.58 1120.02 2314.82 1126.93 2311.31 1132.55C2307.84 1138.16 2303.03 1142.38 2296.88 1145.22C2290.78 1148.05 2283.75 1149.46 2275.79 1149.46C2267.83 1149.46 2260.75 1148.05 2254.55 1145.22C2248.39 1142.38 2243.56 1138.16 2240.04 1132.55C2236.58 1126.93 2234.84 1120.02 2234.84 1111.82V1041.36H2256.82V1111.82C2256.82 1116.6 2257.57 1120.51 2259.09 1123.54C2260.6 1126.56 2262.77 1128.79 2265.61 1130.2C2268.49 1131.62 2271.88 1132.33 2275.79 1132.33C2279.79 1132.33 2283.18 1131.62 2285.97 1130.2C2288.8 1128.79 2290.95 1126.56 2292.41 1123.54C2293.93 1120.51 2294.68 1116.6 2294.68 1111.82V1041.36Z" fill="#828282"/>
<path d="M2372.17 1068.75V1083.69H2326.03V1068.75H2372.17ZM2337.46 1049.2H2358.55V1124.12C2358.55 1126.42 2358.84 1128.18 2359.43 1129.4C2360.06 1130.62 2360.99 1131.47 2362.21 1131.96C2363.43 1132.4 2364.97 1132.62 2366.83 1132.62C2368.14 1132.62 2369.32 1132.57 2370.34 1132.47C2371.42 1132.33 2372.32 1132.18 2373.05 1132.03L2373.12 1147.56C2371.32 1148.15 2369.37 1148.61 2367.27 1148.95C2365.17 1149.29 2362.85 1149.46 2360.31 1149.46C2355.67 1149.46 2351.62 1148.71 2348.15 1147.19C2344.73 1145.63 2342.09 1143.14 2340.24 1139.72C2338.38 1136.31 2337.46 1131.81 2337.46 1126.25V1049.2Z" fill="#828282"/>
<path d="M2406.45 1068.75V1148H2385.28V1068.75H2406.45ZM2383.96 1048.1C2383.96 1045.02 2385.04 1042.48 2387.19 1040.48C2389.34 1038.48 2392.22 1037.48 2395.83 1037.48C2399.39 1037.48 2402.25 1038.48 2404.4 1040.48C2406.6 1042.48 2407.7 1045.02 2407.7 1048.1C2407.7 1051.17 2406.6 1053.71 2404.4 1055.71C2402.25 1057.72 2399.39 1058.72 2395.83 1058.72C2392.22 1058.72 2389.34 1057.72 2387.19 1055.71C2385.04 1053.71 2383.96 1051.17 2383.96 1048.1Z" fill="#828282"/>
<path d="M2446.15 1035.5V1148H2424.98V1035.5H2446.15Z" fill="#828282"/>
<path d="M2485.84 1068.75V1148H2464.68V1068.75H2485.84ZM2463.36 1048.1C2463.36 1045.02 2464.43 1042.48 2466.58 1040.48C2468.73 1038.48 2471.61 1037.48 2475.22 1037.48C2478.79 1037.48 2481.65 1038.48 2483.79 1040.48C2485.99 1042.48 2487.09 1045.02 2487.09 1048.1C2487.09 1051.17 2485.99 1053.71 2483.79 1055.71C2481.65 1057.72 2478.79 1058.72 2475.22 1058.72C2471.61 1058.72 2468.73 1057.72 2466.58 1055.71C2464.43 1053.71 2463.36 1051.17 2463.36 1048.1Z" fill="#828282"/>
<path d="M2542.09 1068.75V1083.69H2495.95V1068.75H2542.09ZM2507.38 1049.2H2528.47V1124.12C2528.47 1126.42 2528.76 1128.18 2529.35 1129.4C2529.99 1130.62 2530.91 1131.47 2532.13 1131.96C2533.35 1132.4 2534.89 1132.62 2536.75 1132.62C2538.07 1132.62 2539.24 1132.57 2540.26 1132.47C2541.34 1132.33 2542.24 1132.18 2542.97 1132.03L2543.05 1147.56C2541.24 1148.15 2539.29 1148.61 2537.19 1148.95C2535.09 1149.29 2532.77 1149.46 2530.23 1149.46C2525.59 1149.46 2521.54 1148.71 2518.07 1147.19C2514.65 1145.63 2512.02 1143.14 2510.16 1139.72C2508.31 1136.31 2507.38 1131.81 2507.38 1126.25V1049.2Z" fill="#828282"/>
<path d="M2577.62 1139.06L2598.64 1068.75H2621.27L2589.41 1159.94C2588.73 1161.94 2587.8 1164.09 2586.63 1166.38C2585.5 1168.68 2583.96 1170.85 2582.01 1172.9C2580.11 1175 2577.69 1176.71 2574.76 1178.03C2571.88 1179.35 2568.34 1180.01 2564.14 1180.01C2562.14 1180.01 2560.5 1179.88 2559.23 1179.64C2557.96 1179.4 2556.45 1179.05 2554.69 1178.62V1163.16C2555.23 1163.16 2555.79 1163.16 2556.38 1163.16C2556.96 1163.21 2557.52 1163.23 2558.06 1163.23C2560.84 1163.23 2563.12 1162.92 2564.87 1162.28C2566.63 1161.65 2568.05 1160.67 2569.12 1159.35C2570.2 1158.08 2571.05 1156.42 2571.68 1154.37L2577.62 1139.06ZM2568.83 1068.75L2586.04 1126.17L2589.04 1148.51L2574.69 1150.05L2546.2 1068.75H2568.83Z" fill="#828282"/>
<path d="M2693.93 1148H2672.69V1061.72C2672.69 1055.71 2673.86 1050.66 2676.2 1046.56C2678.59 1042.41 2681.94 1039.28 2686.24 1037.18C2690.58 1035.04 2695.73 1033.96 2701.69 1033.96C2703.64 1033.96 2705.52 1034.11 2707.33 1034.4C2709.14 1034.65 2710.89 1034.96 2712.6 1035.35L2712.38 1051.25C2711.46 1051 2710.48 1050.83 2709.45 1050.73C2708.43 1050.64 2707.23 1050.59 2705.86 1050.59C2703.33 1050.59 2701.15 1051.03 2699.35 1051.91C2697.59 1052.74 2696.25 1053.98 2695.32 1055.64C2694.39 1057.3 2693.93 1059.33 2693.93 1061.72V1148ZM2709.75 1068.75V1083.69H2660.89V1068.75H2709.75Z" fill="#828282"/>
<path d="M2717.44 1109.18V1107.64C2717.44 1101.83 2718.27 1096.49 2719.93 1091.6C2721.59 1086.67 2724 1082.4 2727.18 1078.79C2730.35 1075.17 2734.26 1072.37 2738.9 1070.36C2743.54 1068.31 2748.86 1067.29 2754.86 1067.29C2760.87 1067.29 2766.22 1068.31 2770.9 1070.36C2775.59 1072.37 2779.52 1075.17 2782.7 1078.79C2785.92 1082.4 2788.36 1086.67 2790.02 1091.6C2791.68 1096.49 2792.51 1101.83 2792.51 1107.64V1109.18C2792.51 1114.94 2791.68 1120.29 2790.02 1125.22C2788.36 1130.1 2785.92 1134.38 2782.7 1138.04C2779.52 1141.65 2775.62 1144.46 2770.98 1146.46C2766.34 1148.46 2761.02 1149.46 2755.01 1149.46C2749 1149.46 2743.66 1148.46 2738.97 1146.46C2734.33 1144.46 2730.4 1141.65 2727.18 1138.04C2724 1134.38 2721.59 1130.1 2719.93 1125.22C2718.27 1120.29 2717.44 1114.94 2717.44 1109.18ZM2738.53 1107.64V1109.18C2738.53 1112.5 2738.82 1115.6 2739.41 1118.48C2740 1121.36 2740.92 1123.9 2742.19 1126.1C2743.51 1128.25 2745.22 1129.93 2747.32 1131.15C2749.42 1132.38 2751.98 1132.99 2755.01 1132.99C2757.94 1132.99 2760.45 1132.38 2762.55 1131.15C2764.65 1129.93 2766.34 1128.25 2767.61 1126.1C2768.88 1123.9 2769.8 1121.36 2770.39 1118.48C2771.03 1115.6 2771.34 1112.5 2771.34 1109.18V1107.64C2771.34 1104.42 2771.03 1101.39 2770.39 1098.56C2769.8 1095.68 2768.85 1093.14 2767.53 1090.94C2766.26 1088.7 2764.58 1086.94 2762.48 1085.67C2760.38 1084.4 2757.84 1083.77 2754.86 1083.77C2751.88 1083.77 2749.35 1084.4 2747.25 1085.67C2745.2 1086.94 2743.51 1088.7 2742.19 1090.94C2740.92 1093.14 2740 1095.68 2739.41 1098.56C2738.82 1101.39 2738.53 1104.42 2738.53 1107.64Z" fill="#828282"/>
<path d="M2826.57 1086.04V1148H2805.47V1068.75H2825.32L2826.57 1086.04ZM2850.44 1068.24L2850.08 1087.79C2849.05 1087.65 2847.81 1087.53 2846.34 1087.43C2844.93 1087.28 2843.63 1087.21 2842.46 1087.21C2839.48 1087.21 2836.89 1087.6 2834.7 1088.38C2832.55 1089.11 2830.74 1090.21 2829.28 1091.68C2827.86 1093.14 2826.79 1094.92 2826.05 1097.02C2825.37 1099.12 2824.98 1101.52 2824.88 1104.2L2820.63 1102.88C2820.63 1097.76 2821.15 1093.04 2822.17 1088.75C2823.2 1084.4 2824.69 1080.62 2826.64 1077.39C2828.64 1074.17 2831.08 1071.68 2833.96 1069.92C2836.85 1068.17 2840.14 1067.29 2843.85 1067.29C2845.02 1067.29 2846.22 1067.38 2847.44 1067.58C2848.66 1067.73 2849.66 1067.95 2850.44 1068.24Z" fill="#828282"/>
<path d="M2930.5 1132.99C2933.09 1132.99 2935.38 1132.5 2937.38 1131.52C2939.38 1130.5 2940.95 1129.08 2942.07 1127.27C2943.24 1125.42 2943.85 1123.24 2943.9 1120.75H2963.75C2963.7 1126.32 2962.21 1131.28 2959.28 1135.62C2956.35 1139.92 2952.42 1143.31 2947.49 1145.8C2942.56 1148.24 2937.04 1149.46 2930.94 1149.46C2924.79 1149.46 2919.41 1148.44 2914.82 1146.39C2910.28 1144.34 2906.5 1141.51 2903.47 1137.89C2900.44 1134.23 2898.17 1129.98 2896.66 1125.15C2895.15 1120.27 2894.39 1115.04 2894.39 1109.47V1107.35C2894.39 1101.74 2895.15 1096.51 2896.66 1091.68C2898.17 1086.79 2900.44 1082.55 2903.47 1078.93C2906.5 1075.27 2910.28 1072.41 2914.82 1070.36C2919.37 1068.31 2924.69 1067.29 2930.79 1067.29C2937.29 1067.29 2942.97 1068.53 2947.86 1071.02C2952.79 1073.51 2956.65 1077.08 2959.43 1081.72C2962.26 1086.31 2963.7 1091.75 2963.75 1098.05H2943.9C2943.85 1095.41 2943.29 1093.02 2942.22 1090.87C2941.19 1088.72 2939.68 1087.01 2937.68 1085.74C2935.72 1084.43 2933.31 1083.77 2930.42 1083.77C2927.35 1083.77 2924.83 1084.43 2922.88 1085.74C2920.93 1087.01 2919.41 1088.77 2918.34 1091.02C2917.27 1093.21 2916.51 1095.73 2916.07 1098.56C2915.68 1101.34 2915.48 1104.27 2915.48 1107.35V1109.47C2915.48 1112.55 2915.68 1115.5 2916.07 1118.34C2916.46 1121.17 2917.19 1123.68 2918.27 1125.88C2919.39 1128.08 2920.93 1129.81 2922.88 1131.08C2924.83 1132.35 2927.37 1132.99 2930.5 1132.99Z" fill="#828282"/>
<path d="M2997.08 1086.04V1148H2975.98V1068.75H2995.83L2997.08 1086.04ZM3020.95 1068.24L3020.59 1087.79C3019.56 1087.65 3018.32 1087.53 3016.85 1087.43C3015.43 1087.28 3014.14 1087.21 3012.97 1087.21C3009.99 1087.21 3007.4 1087.6 3005.21 1088.38C3003.06 1089.11 3001.25 1090.21 2999.79 1091.68C2998.37 1093.14 2997.29 1094.92 2996.56 1097.02C2995.88 1099.12 2995.49 1101.52 2995.39 1104.2L2991.14 1102.88C2991.14 1097.76 2991.66 1093.04 2992.68 1088.75C2993.71 1084.4 2995.2 1080.62 2997.15 1077.39C2999.15 1074.17 3001.59 1071.68 3004.47 1069.92C3007.35 1068.17 3010.65 1067.29 3014.36 1067.29C3015.53 1067.29 3016.73 1067.38 3017.95 1067.58C3019.17 1067.73 3020.17 1067.95 3020.95 1068.24Z" fill="#828282"/>
<path d="M3065.92 1149.46C3059.77 1149.46 3054.25 1148.49 3049.37 1146.54C3044.49 1144.53 3040.34 1141.77 3036.92 1138.26C3033.55 1134.74 3030.96 1130.67 3029.16 1126.03C3027.35 1121.34 3026.45 1116.36 3026.45 1111.09V1108.16C3026.45 1102.15 3027.3 1096.66 3029.01 1091.68C3030.72 1086.7 3033.16 1082.38 3036.33 1078.71C3039.56 1075.05 3043.46 1072.24 3048.05 1070.29C3052.64 1068.29 3057.82 1067.29 3063.58 1067.29C3069.19 1067.29 3074.17 1068.21 3078.52 1070.07C3082.87 1071.93 3086.5 1074.56 3089.43 1077.98C3092.41 1081.4 3094.66 1085.5 3096.17 1090.29C3097.69 1095.02 3098.44 1100.29 3098.44 1106.11V1114.89H3035.45V1100.83H3077.71V1099.22C3077.71 1096.29 3077.18 1093.68 3076.1 1091.38C3075.08 1089.04 3073.52 1087.18 3071.42 1085.82C3069.32 1084.45 3066.63 1083.77 3063.36 1083.77C3060.58 1083.77 3058.18 1084.38 3056.18 1085.6C3054.18 1086.82 3052.54 1088.53 3051.27 1090.72C3050.05 1092.92 3049.13 1095.51 3048.49 1098.49C3047.91 1101.42 3047.61 1104.64 3047.61 1108.16V1111.09C3047.61 1114.26 3048.05 1117.19 3048.93 1119.88C3049.86 1122.56 3051.15 1124.88 3052.81 1126.83C3054.52 1128.79 3056.57 1130.3 3058.96 1131.37C3061.41 1132.45 3064.17 1132.99 3067.24 1132.99C3071.05 1132.99 3074.59 1132.25 3077.86 1130.79C3081.18 1129.27 3084.04 1127 3086.43 1123.98L3096.68 1135.11C3095.02 1137.5 3092.75 1139.8 3089.87 1141.99C3087.04 1144.19 3083.62 1146 3079.62 1147.41C3075.62 1148.78 3071.05 1149.46 3065.92 1149.46Z" fill="#828282"/>
<path d="M3153.23 1130.13V1094.83C3153.23 1092.29 3152.81 1090.11 3151.98 1088.31C3151.15 1086.45 3149.86 1085.01 3148.1 1083.99C3146.39 1082.96 3144.17 1082.45 3141.44 1082.45C3139.09 1082.45 3137.07 1082.86 3135.36 1083.69C3133.65 1084.47 3132.33 1085.62 3131.4 1087.14C3130.47 1088.6 3130.01 1090.33 3130.01 1092.34H3108.92C3108.92 1088.97 3109.7 1085.77 3111.26 1082.74C3112.82 1079.71 3115.09 1077.05 3118.07 1074.76C3121.05 1072.41 3124.59 1070.58 3128.69 1069.26C3132.84 1067.95 3137.48 1067.29 3142.61 1067.29C3148.76 1067.29 3154.23 1068.31 3159.01 1070.36C3163.8 1072.41 3167.56 1075.49 3170.29 1079.59C3173.08 1083.69 3174.47 1088.82 3174.47 1094.97V1128.88C3174.47 1133.23 3174.74 1136.79 3175.27 1139.58C3175.81 1142.31 3176.59 1144.7 3177.62 1146.75V1148H3156.3C3155.28 1145.85 3154.5 1143.17 3153.96 1139.94C3153.47 1136.67 3153.23 1133.4 3153.23 1130.13ZM3156.01 1099.73L3156.16 1111.67H3144.37C3141.58 1111.67 3139.17 1111.99 3137.11 1112.62C3135.06 1113.26 3133.38 1114.16 3132.06 1115.33C3130.74 1116.46 3129.77 1117.78 3129.13 1119.29C3128.54 1120.8 3128.25 1122.46 3128.25 1124.27C3128.25 1126.08 3128.67 1127.71 3129.5 1129.18C3130.33 1130.59 3131.52 1131.72 3133.09 1132.55C3134.65 1133.33 3136.48 1133.72 3138.58 1133.72C3141.75 1133.72 3144.51 1133.08 3146.86 1131.81C3149.2 1130.54 3151.01 1128.98 3152.28 1127.13C3153.59 1125.27 3154.28 1123.51 3154.33 1121.85L3159.89 1130.79C3159.11 1132.79 3158.04 1134.87 3156.67 1137.01C3155.35 1139.16 3153.67 1141.19 3151.62 1143.09C3149.57 1144.95 3147.1 1146.49 3144.22 1147.71C3141.34 1148.88 3137.92 1149.46 3133.96 1149.46C3128.94 1149.46 3124.37 1148.46 3120.27 1146.46C3116.22 1144.41 3112.99 1141.6 3110.6 1138.04C3108.26 1134.43 3107.08 1130.32 3107.08 1125.73C3107.08 1121.58 3107.87 1117.9 3109.43 1114.67C3110.99 1111.45 3113.29 1108.74 3116.31 1106.54C3119.39 1104.3 3123.22 1102.61 3127.81 1101.49C3132.4 1100.32 3137.72 1099.73 3143.78 1099.73H3156.01Z" fill="#828282"/>
<path d="M3229.55 1068.75V1083.69H3183.4V1068.75H3229.55ZM3194.83 1049.2H3215.92V1124.12C3215.92 1126.42 3216.22 1128.18 3216.8 1129.4C3217.44 1130.62 3218.36 1131.47 3219.58 1131.96C3220.81 1132.4 3222.34 1132.62 3224.2 1132.62C3225.52 1132.62 3226.69 1132.57 3227.71 1132.47C3228.79 1132.33 3229.69 1132.18 3230.42 1132.03L3230.5 1147.56C3228.69 1148.15 3226.74 1148.61 3224.64 1148.95C3222.54 1149.29 3220.22 1149.46 3217.68 1149.46C3213.04 1149.46 3208.99 1148.71 3205.52 1147.19C3202.1 1145.63 3199.47 1143.14 3197.61 1139.72C3195.76 1136.31 3194.83 1131.81 3194.83 1126.25V1049.2Z" fill="#828282"/>
<path d="M3263.82 1068.75V1148H3242.66V1068.75H3263.82ZM3241.34 1048.1C3241.34 1045.02 3242.41 1042.48 3244.56 1040.48C3246.71 1038.48 3249.59 1037.48 3253.2 1037.48C3256.77 1037.48 3259.62 1038.48 3261.77 1040.48C3263.97 1042.48 3265.07 1045.02 3265.07 1048.1C3265.07 1051.17 3263.97 1053.71 3261.77 1055.71C3259.62 1057.72 3256.77 1058.72 3253.2 1058.72C3249.59 1058.72 3246.71 1057.72 3244.56 1055.71C3242.41 1053.71 3241.34 1051.17 3241.34 1048.1Z" fill="#828282"/>
<path d="M3301.91 1085.67V1148H3280.82V1068.75H3300.59L3301.91 1085.67ZM3298.83 1105.59H3293.12C3293.12 1099.73 3293.88 1094.46 3295.39 1089.77C3296.9 1085.04 3299.03 1081.01 3301.76 1077.69C3304.5 1074.32 3307.74 1071.75 3311.5 1070C3315.31 1068.19 3319.56 1067.29 3324.25 1067.29C3327.96 1067.29 3331.35 1067.82 3334.43 1068.9C3337.5 1069.97 3340.14 1071.68 3342.34 1074.03C3344.58 1076.37 3346.29 1079.47 3347.47 1083.33C3348.69 1087.18 3349.3 1091.9 3349.3 1097.46V1148H3328.06V1097.39C3328.06 1093.87 3327.57 1091.14 3326.59 1089.19C3325.62 1087.23 3324.17 1085.87 3322.27 1085.08C3320.42 1084.25 3318.12 1083.84 3315.39 1083.84C3312.55 1083.84 3310.09 1084.4 3307.99 1085.52C3305.94 1086.65 3304.23 1088.21 3302.86 1090.21C3301.54 1092.17 3300.54 1094.46 3299.86 1097.1C3299.17 1099.73 3298.83 1102.57 3298.83 1105.59Z" fill="#828282"/>
<path d="M3415.51 1068.75H3434.62V1145.36C3434.62 1152.59 3433.01 1158.72 3429.79 1163.75C3426.62 1168.83 3422.17 1172.66 3416.46 1175.25C3410.75 1177.88 3404.11 1179.2 3396.54 1179.2C3393.22 1179.2 3389.7 1178.76 3385.99 1177.88C3382.33 1177 3378.81 1175.64 3375.44 1173.78C3372.12 1171.93 3369.34 1169.58 3367.09 1166.75L3376.4 1154.3C3378.84 1157.13 3381.67 1159.33 3384.89 1160.89C3388.12 1162.5 3391.68 1163.31 3395.59 1163.31C3399.39 1163.31 3402.62 1162.6 3405.25 1161.18C3407.89 1159.82 3409.92 1157.79 3411.33 1155.1C3412.75 1152.47 3413.46 1149.27 3413.46 1145.51V1087.06L3415.51 1068.75ZM3362.19 1109.33V1107.79C3362.19 1101.74 3362.92 1096.24 3364.38 1091.31C3365.9 1086.33 3368.02 1082.06 3370.76 1078.49C3373.54 1074.93 3376.91 1072.17 3380.86 1070.22C3384.82 1068.26 3389.29 1067.29 3394.27 1067.29C3399.54 1067.29 3403.96 1068.26 3407.52 1070.22C3411.09 1072.17 3414.02 1074.95 3416.31 1078.57C3418.61 1082.13 3420.39 1086.35 3421.66 1091.24C3422.98 1096.07 3424 1101.37 3424.74 1107.13V1110.5C3424 1116.02 3422.91 1121.14 3421.44 1125.88C3419.98 1130.62 3418.05 1134.77 3415.65 1138.33C3413.26 1141.85 3410.28 1144.58 3406.72 1146.54C3403.2 1148.49 3399 1149.46 3394.12 1149.46C3389.24 1149.46 3384.82 1148.46 3380.86 1146.46C3376.96 1144.46 3373.61 1141.65 3370.83 1138.04C3368.05 1134.43 3365.9 1130.18 3364.38 1125.29C3362.92 1120.41 3362.19 1115.09 3362.19 1109.33ZM3383.28 1107.79V1109.33C3383.28 1112.6 3383.6 1115.65 3384.23 1118.48C3384.87 1121.32 3385.84 1123.83 3387.16 1126.03C3388.53 1128.18 3390.21 1129.86 3392.22 1131.08C3394.27 1132.25 3396.68 1132.84 3399.47 1132.84C3403.33 1132.84 3406.47 1132.03 3408.92 1130.42C3411.36 1128.76 3413.19 1126.49 3414.41 1123.61C3415.63 1120.73 3416.34 1117.41 3416.53 1113.65V1104.05C3416.44 1100.98 3416.02 1098.22 3415.29 1095.78C3414.56 1093.29 3413.53 1091.16 3412.21 1089.41C3410.89 1087.65 3409.18 1086.28 3407.08 1085.3C3404.99 1084.33 3402.5 1083.84 3399.61 1083.84C3396.83 1083.84 3394.41 1084.47 3392.36 1085.74C3390.36 1086.96 3388.68 1088.65 3387.31 1090.8C3385.99 1092.95 3384.99 1095.49 3384.31 1098.42C3383.62 1101.3 3383.28 1104.42 3383.28 1107.79Z" fill="#828282"/>
<path d="M3515.34 1132.62L3532.92 1068.75H3554.96L3528.23 1148H3514.9L3515.34 1132.62ZM3503.25 1068.75L3520.9 1132.69L3521.27 1148H3507.87L3481.13 1068.75H3503.25Z" fill="#828282"/>
<path d="M3586.67 1068.75V1148H3565.51V1068.75H3586.67ZM3564.19 1048.1C3564.19 1045.02 3565.26 1042.48 3567.41 1040.48C3569.56 1038.48 3572.44 1037.48 3576.05 1037.48C3579.62 1037.48 3582.48 1038.48 3584.62 1040.48C3586.82 1042.48 3587.92 1045.02 3587.92 1048.1C3587.92 1051.17 3586.82 1053.71 3584.62 1055.71C3582.48 1057.72 3579.62 1058.72 3576.05 1058.72C3572.44 1058.72 3569.56 1057.72 3567.41 1055.71C3565.26 1053.71 3564.19 1051.17 3564.19 1048.1Z" fill="#828282"/>
<path d="M3646.95 1126.1C3646.95 1124.59 3646.51 1123.22 3645.63 1122C3644.76 1120.78 3643.12 1119.66 3640.73 1118.63C3638.38 1117.56 3634.99 1116.58 3630.55 1115.7C3626.54 1114.82 3622.81 1113.72 3619.34 1112.4C3615.92 1111.04 3612.94 1109.4 3610.41 1107.5C3607.92 1105.59 3605.96 1103.35 3604.55 1100.76C3603.13 1098.12 3602.42 1095.12 3602.42 1091.75C3602.42 1088.43 3603.13 1085.3 3604.55 1082.38C3606.01 1079.45 3608.09 1076.86 3610.77 1074.61C3613.51 1072.32 3616.83 1070.53 3620.73 1069.26C3624.69 1067.95 3629.13 1067.29 3634.06 1067.29C3640.95 1067.29 3646.86 1068.39 3651.79 1070.58C3656.77 1072.78 3660.58 1075.81 3663.21 1079.67C3665.9 1083.47 3667.24 1087.82 3667.24 1092.7H3646.15C3646.15 1090.65 3645.71 1088.82 3644.83 1087.21C3644 1085.55 3642.68 1084.25 3640.87 1083.33C3639.12 1082.35 3636.82 1081.86 3633.99 1081.86C3631.65 1081.86 3629.62 1082.28 3627.91 1083.11C3626.2 1083.89 3624.88 1084.96 3623.96 1086.33C3623.08 1087.65 3622.64 1089.11 3622.64 1090.72C3622.64 1091.95 3622.88 1093.04 3623.37 1094.02C3623.91 1094.95 3624.76 1095.8 3625.93 1096.58C3627.1 1097.37 3628.62 1098.1 3630.47 1098.78C3632.38 1099.42 3634.72 1100 3637.5 1100.54C3643.22 1101.71 3648.32 1103.25 3652.81 1105.15C3657.3 1107.01 3660.87 1109.55 3663.51 1112.77C3666.14 1115.94 3667.46 1120.12 3667.46 1125.29C3667.46 1128.81 3666.68 1132.03 3665.12 1134.96C3663.55 1137.89 3661.31 1140.46 3658.38 1142.65C3655.45 1144.8 3651.93 1146.49 3647.83 1147.71C3643.78 1148.88 3639.21 1149.46 3634.14 1149.46C3626.76 1149.46 3620.51 1148.15 3615.39 1145.51C3610.31 1142.87 3606.45 1139.53 3603.81 1135.48C3601.23 1131.37 3599.93 1127.17 3599.93 1122.88H3619.93C3620.02 1125.76 3620.76 1128.08 3622.12 1129.84C3623.54 1131.59 3625.32 1132.86 3627.47 1133.64C3629.67 1134.43 3632.04 1134.82 3634.58 1134.82C3637.31 1134.82 3639.58 1134.45 3641.39 1133.72C3643.19 1132.94 3644.56 1131.91 3645.49 1130.64C3646.46 1129.32 3646.95 1127.81 3646.95 1126.1Z" fill="#828282"/>
<path d="M3728.03 1129.03V1068.75H3749.13V1148H3729.28L3728.03 1129.03ZM3730.38 1112.77L3736.6 1112.62C3736.6 1117.9 3735.99 1122.8 3734.77 1127.35C3733.55 1131.84 3731.72 1135.74 3729.28 1139.06C3726.84 1142.34 3723.76 1144.9 3720.05 1146.75C3716.34 1148.56 3711.97 1149.46 3706.94 1149.46C3703.08 1149.46 3699.52 1148.93 3696.25 1147.85C3693.02 1146.73 3690.24 1145 3687.9 1142.65C3685.6 1140.26 3683.79 1137.21 3682.48 1133.5C3681.21 1129.74 3680.57 1125.22 3680.57 1119.95V1068.75H3701.67V1120.09C3701.67 1122.44 3701.93 1124.42 3702.47 1126.03C3703.06 1127.64 3703.86 1128.96 3704.89 1129.98C3705.91 1131.01 3707.11 1131.74 3708.48 1132.18C3709.89 1132.62 3711.46 1132.84 3713.16 1132.84C3717.51 1132.84 3720.93 1131.96 3723.42 1130.2C3725.96 1128.44 3727.74 1126.05 3728.76 1123.02C3729.84 1119.95 3730.38 1116.53 3730.38 1112.77Z" fill="#828282"/>
<path d="M3808.01 1130.13V1094.83C3808.01 1092.29 3807.6 1090.11 3806.77 1088.31C3805.94 1086.45 3804.64 1085.01 3802.89 1083.99C3801.18 1082.96 3798.96 1082.45 3796.22 1082.45C3793.88 1082.45 3791.85 1082.86 3790.14 1083.69C3788.43 1084.47 3787.11 1085.62 3786.19 1087.14C3785.26 1088.6 3784.79 1090.33 3784.79 1092.34H3763.7C3763.7 1088.97 3764.48 1085.77 3766.04 1082.74C3767.61 1079.71 3769.88 1077.05 3772.86 1074.76C3775.83 1072.41 3779.38 1070.58 3783.48 1069.26C3787.63 1067.95 3792.27 1067.29 3797.39 1067.29C3803.54 1067.29 3809.01 1068.31 3813.8 1070.36C3818.58 1072.41 3822.34 1075.49 3825.08 1079.59C3827.86 1083.69 3829.25 1088.82 3829.25 1094.97V1128.88C3829.25 1133.23 3829.52 1136.79 3830.06 1139.58C3830.6 1142.31 3831.38 1144.7 3832.4 1146.75V1148H3811.09C3810.06 1145.85 3809.28 1143.17 3808.75 1139.94C3808.26 1136.67 3808.01 1133.4 3808.01 1130.13ZM3810.8 1099.73L3810.94 1111.67H3799.15C3796.37 1111.67 3793.95 1111.99 3791.9 1112.62C3789.85 1113.26 3788.16 1114.16 3786.85 1115.33C3785.53 1116.46 3784.55 1117.78 3783.92 1119.29C3783.33 1120.8 3783.04 1122.46 3783.04 1124.27C3783.04 1126.08 3783.45 1127.71 3784.28 1129.18C3785.11 1130.59 3786.31 1131.72 3787.87 1132.55C3789.43 1133.33 3791.26 1133.72 3793.36 1133.72C3796.54 1133.72 3799.3 1133.08 3801.64 1131.81C3803.98 1130.54 3805.79 1128.98 3807.06 1127.13C3808.38 1125.27 3809.06 1123.51 3809.11 1121.85L3814.68 1130.79C3813.9 1132.79 3812.82 1134.87 3811.46 1137.01C3810.14 1139.16 3808.45 1141.19 3806.4 1143.09C3804.35 1144.95 3801.88 1146.49 3799 1147.71C3796.12 1148.88 3792.71 1149.46 3788.75 1149.46C3783.72 1149.46 3779.16 1148.46 3775.05 1146.46C3771 1144.41 3767.78 1141.6 3765.39 1138.04C3763.04 1134.43 3761.87 1130.32 3761.87 1125.73C3761.87 1121.58 3762.65 1117.9 3764.21 1114.67C3765.78 1111.45 3768.07 1108.74 3771.1 1106.54C3774.17 1104.3 3778.01 1102.61 3782.6 1101.49C3787.19 1100.32 3792.51 1099.73 3798.56 1099.73H3810.8Z" fill="#828282"/>
<path d="M3867.78 1035.5V1148H3846.61V1035.5H3867.78Z" fill="#828282"/>
<path d="M3943.66 1086.04V1148H3922.56V1068.75H3942.41L3943.66 1086.04ZM3967.53 1068.24L3967.17 1087.79C3966.14 1087.65 3964.9 1087.53 3963.43 1087.43C3962.02 1087.28 3960.72 1087.21 3959.55 1087.21C3956.57 1087.21 3953.98 1087.6 3951.79 1088.38C3949.64 1089.11 3947.83 1090.21 3946.37 1091.68C3944.95 1093.14 3943.88 1094.92 3943.14 1097.02C3942.46 1099.12 3942.07 1101.52 3941.97 1104.2L3937.72 1102.88C3937.72 1097.76 3938.24 1093.04 3939.26 1088.75C3940.29 1084.4 3941.78 1080.62 3943.73 1077.39C3945.73 1074.17 3948.17 1071.68 3951.05 1069.92C3953.94 1068.17 3957.23 1067.29 3960.94 1067.29C3962.11 1067.29 3963.31 1067.38 3964.53 1067.58C3965.75 1067.73 3966.75 1067.95 3967.53 1068.24Z" fill="#828282"/>
<path d="M4012.5 1149.46C4006.35 1149.46 4000.83 1148.49 3995.95 1146.54C3991.07 1144.53 3986.92 1141.77 3983.5 1138.26C3980.13 1134.74 3977.54 1130.67 3975.74 1126.03C3973.93 1121.34 3973.03 1116.36 3973.03 1111.09V1108.16C3973.03 1102.15 3973.88 1096.66 3975.59 1091.68C3977.3 1086.7 3979.74 1082.38 3982.92 1078.71C3986.14 1075.05 3990.04 1072.24 3994.63 1070.29C3999.22 1068.29 4004.4 1067.29 4010.16 1067.29C4015.78 1067.29 4020.76 1068.21 4025.1 1070.07C4029.45 1071.93 4033.09 1074.56 4036.02 1077.98C4038.99 1081.4 4041.24 1085.5 4042.75 1090.29C4044.27 1095.02 4045.02 1100.29 4045.02 1106.11V1114.89H3982.04V1100.83H4024.3V1099.22C4024.3 1096.29 4023.76 1093.68 4022.69 1091.38C4021.66 1089.04 4020.1 1087.18 4018 1085.82C4015.9 1084.45 4013.21 1083.77 4009.94 1083.77C4007.16 1083.77 4004.77 1084.38 4002.76 1085.6C4000.76 1086.82 3999.13 1088.53 3997.86 1090.72C3996.64 1092.92 3995.71 1095.51 3995.07 1098.49C3994.49 1101.42 3994.19 1104.64 3994.19 1108.16V1111.09C3994.19 1114.26 3994.63 1117.19 3995.51 1119.88C3996.44 1122.56 3997.73 1124.88 3999.39 1126.83C4001.1 1128.79 4003.15 1130.3 4005.55 1131.37C4007.99 1132.45 4010.75 1132.99 4013.82 1132.99C4017.63 1132.99 4021.17 1132.25 4024.44 1130.79C4027.76 1129.27 4030.62 1127 4033.01 1123.98L4043.27 1135.11C4041.61 1137.5 4039.34 1139.8 4036.46 1141.99C4033.62 1144.19 4030.21 1146 4026.2 1147.41C4022.2 1148.78 4017.63 1149.46 4012.5 1149.46Z" fill="#828282"/>
<path d="M4078.13 1083.99V1178.47H4057.04V1068.75H4076.59L4078.13 1083.99ZM4128.3 1107.5V1109.04C4128.3 1114.8 4127.62 1120.14 4126.25 1125.08C4124.93 1130.01 4122.98 1134.3 4120.39 1137.97C4117.8 1141.58 4114.58 1144.41 4110.72 1146.46C4106.91 1148.46 4102.52 1149.46 4097.54 1149.46C4092.71 1149.46 4088.51 1148.49 4084.94 1146.54C4081.38 1144.58 4078.37 1141.85 4075.93 1138.33C4073.54 1134.77 4071.61 1130.64 4070.15 1125.95C4068.68 1121.27 4067.56 1116.24 4066.78 1110.87V1106.84C4067.56 1101.08 4068.68 1095.8 4070.15 1091.02C4071.61 1086.18 4073.54 1082.01 4075.93 1078.49C4078.37 1074.93 4081.35 1072.17 4084.87 1070.22C4088.43 1068.26 4092.61 1067.29 4097.39 1067.29C4102.42 1067.29 4106.84 1068.24 4110.65 1070.14C4114.51 1072.05 4117.73 1074.78 4120.32 1078.35C4122.95 1081.91 4124.93 1086.16 4126.25 1091.09C4127.62 1096.02 4128.3 1101.49 4128.3 1107.5ZM4107.13 1109.04V1107.5C4107.13 1104.13 4106.84 1101.03 4106.25 1098.2C4105.72 1095.31 4104.84 1092.8 4103.62 1090.65C4102.45 1088.5 4100.88 1086.84 4098.93 1085.67C4097.03 1084.45 4094.71 1083.84 4091.97 1083.84C4089.09 1083.84 4086.63 1084.3 4084.58 1085.23C4082.57 1086.16 4080.94 1087.5 4079.67 1089.26C4078.4 1091.02 4077.45 1093.12 4076.81 1095.56C4076.18 1098 4075.79 1100.76 4075.64 1103.83V1114.02C4075.88 1117.63 4076.57 1120.88 4077.69 1123.76C4078.81 1126.59 4080.55 1128.83 4082.89 1130.5C4085.23 1132.16 4088.31 1132.99 4092.12 1132.99C4094.9 1132.99 4097.25 1132.38 4099.15 1131.15C4101.05 1129.88 4102.59 1128.15 4103.76 1125.95C4104.99 1123.76 4105.84 1121.22 4106.33 1118.34C4106.87 1115.46 4107.13 1112.36 4107.13 1109.04Z" fill="#828282"/>
<path d="M4138.04 1109.18V1107.64C4138.04 1101.83 4138.87 1096.49 4140.53 1091.6C4142.19 1086.67 4144.61 1082.4 4147.78 1078.79C4150.96 1075.17 4154.86 1072.37 4159.5 1070.36C4164.14 1068.31 4169.46 1067.29 4175.47 1067.29C4181.47 1067.29 4186.82 1068.31 4191.51 1070.36C4196.2 1072.37 4200.13 1075.17 4203.3 1078.79C4206.52 1082.4 4208.96 1086.67 4210.62 1091.6C4212.29 1096.49 4213.12 1101.83 4213.12 1107.64V1109.18C4213.12 1114.94 4212.29 1120.29 4210.62 1125.22C4208.96 1130.1 4206.52 1134.38 4203.3 1138.04C4200.13 1141.65 4196.22 1144.46 4191.58 1146.46C4186.94 1148.46 4181.62 1149.46 4175.62 1149.46C4169.61 1149.46 4164.26 1148.46 4159.58 1146.46C4154.94 1144.46 4151.01 1141.65 4147.78 1138.04C4144.61 1134.38 4142.19 1130.1 4140.53 1125.22C4138.87 1120.29 4138.04 1114.94 4138.04 1109.18ZM4159.14 1107.64V1109.18C4159.14 1112.5 4159.43 1115.6 4160.01 1118.48C4160.6 1121.36 4161.53 1123.9 4162.8 1126.1C4164.12 1128.25 4165.83 1129.93 4167.92 1131.15C4170.02 1132.38 4172.59 1132.99 4175.62 1132.99C4178.54 1132.99 4181.06 1132.38 4183.16 1131.15C4185.26 1129.93 4186.94 1128.25 4188.21 1126.1C4189.48 1123.9 4190.41 1121.36 4191 1118.48C4191.63 1115.6 4191.95 1112.5 4191.95 1109.18V1107.64C4191.95 1104.42 4191.63 1101.39 4191 1098.56C4190.41 1095.68 4189.46 1093.14 4188.14 1090.94C4186.87 1088.7 4185.19 1086.94 4183.09 1085.67C4180.99 1084.4 4178.45 1083.77 4175.47 1083.77C4172.49 1083.77 4169.95 1084.4 4167.85 1085.67C4165.8 1086.94 4164.12 1088.7 4162.8 1090.94C4161.53 1093.14 4160.6 1095.68 4160.01 1098.56C4159.43 1101.39 4159.14 1104.42 4159.14 1107.64Z" fill="#828282"/>
<path d="M4247.17 1086.04V1148H4226.08V1068.75H4245.93L4247.17 1086.04ZM4271.05 1068.24L4270.68 1087.79C4269.66 1087.65 4268.41 1087.53 4266.95 1087.43C4265.53 1087.28 4264.24 1087.21 4263.07 1087.21C4260.09 1087.21 4257.5 1087.6 4255.3 1088.38C4253.15 1089.11 4251.35 1090.21 4249.88 1091.68C4248.47 1093.14 4247.39 1094.92 4246.66 1097.02C4245.98 1099.12 4245.59 1101.52 4245.49 1104.2L4241.24 1102.88C4241.24 1097.76 4241.75 1093.04 4242.78 1088.75C4243.8 1084.4 4245.29 1080.62 4247.25 1077.39C4249.25 1074.17 4251.69 1071.68 4254.57 1069.92C4257.45 1068.17 4260.75 1067.29 4264.46 1067.29C4265.63 1067.29 4266.83 1067.38 4268.05 1067.58C4269.27 1067.73 4270.27 1067.95 4271.05 1068.24Z" fill="#828282"/>
<path d="M4323.49 1068.75V1083.69H4277.35V1068.75H4323.49ZM4288.77 1049.2H4309.87V1124.12C4309.87 1126.42 4310.16 1128.18 4310.75 1129.4C4311.38 1130.62 4312.31 1131.47 4313.53 1131.96C4314.75 1132.4 4316.29 1132.62 4318.14 1132.62C4319.46 1132.62 4320.63 1132.57 4321.66 1132.47C4322.73 1132.33 4323.64 1132.18 4324.37 1132.03L4324.44 1147.56C4322.64 1148.15 4320.68 1148.61 4318.58 1148.95C4316.48 1149.29 4314.17 1149.46 4311.63 1149.46C4306.99 1149.46 4302.93 1148.71 4299.47 1147.19C4296.05 1145.63 4293.41 1143.14 4291.56 1139.72C4289.7 1136.31 4288.77 1131.81 4288.77 1126.25V1049.2Z" fill="#828282"/>
<path d="M4378.35 1126.1C4378.35 1124.59 4377.91 1123.22 4377.03 1122C4376.15 1120.78 4374.52 1119.66 4372.12 1118.63C4369.78 1117.56 4366.39 1116.58 4361.94 1115.7C4357.94 1114.82 4354.2 1113.72 4350.74 1112.4C4347.32 1111.04 4344.34 1109.4 4341.8 1107.5C4339.31 1105.59 4337.36 1103.35 4335.94 1100.76C4334.53 1098.12 4333.82 1095.12 4333.82 1091.75C4333.82 1088.43 4334.53 1085.3 4335.94 1082.38C4337.41 1079.45 4339.48 1076.86 4342.17 1074.61C4344.9 1072.32 4348.22 1070.53 4352.13 1069.26C4356.08 1067.95 4360.53 1067.29 4365.46 1067.29C4372.34 1067.29 4378.25 1068.39 4383.18 1070.58C4388.16 1072.78 4391.97 1075.81 4394.61 1079.67C4397.29 1083.47 4398.64 1087.82 4398.64 1092.7H4377.54C4377.54 1090.65 4377.1 1088.82 4376.23 1087.21C4375.4 1085.55 4374.08 1084.25 4372.27 1083.33C4370.51 1082.35 4368.22 1081.86 4365.39 1081.86C4363.04 1081.86 4361.02 1082.28 4359.31 1083.11C4357.6 1083.89 4356.28 1084.96 4355.35 1086.33C4354.47 1087.65 4354.03 1089.11 4354.03 1090.72C4354.03 1091.95 4354.28 1093.04 4354.77 1094.02C4355.3 1094.95 4356.16 1095.8 4357.33 1096.58C4358.5 1097.37 4360.01 1098.1 4361.87 1098.78C4363.77 1099.42 4366.12 1100 4368.9 1100.54C4374.61 1101.71 4379.72 1103.25 4384.21 1105.15C4388.7 1107.01 4392.27 1109.55 4394.9 1112.77C4397.54 1115.94 4398.86 1120.12 4398.86 1125.29C4398.86 1128.81 4398.08 1132.03 4396.51 1134.96C4394.95 1137.89 4392.71 1140.46 4389.78 1142.65C4386.85 1144.8 4383.33 1146.49 4379.23 1147.71C4375.18 1148.88 4370.61 1149.46 4365.53 1149.46C4358.16 1149.46 4351.91 1148.15 4346.78 1145.51C4341.7 1142.87 4337.85 1139.53 4335.21 1135.48C4332.62 1131.37 4331.33 1127.17 4331.33 1122.88H4351.32C4351.42 1125.76 4352.15 1128.08 4353.52 1129.84C4354.94 1131.59 4356.72 1132.86 4358.87 1133.64C4361.06 1134.43 4363.43 1134.82 4365.97 1134.82C4368.71 1134.82 4370.98 1134.45 4372.78 1133.72C4374.59 1132.94 4375.96 1131.91 4376.88 1130.64C4377.86 1129.32 4378.35 1127.81 4378.35 1126.1Z" fill="#828282"/>
<path d="M4446.54 1109.18V1107.64C4446.54 1101.83 4447.37 1096.49 4449.03 1091.6C4450.69 1086.67 4453.11 1082.4 4456.28 1078.79C4459.45 1075.17 4463.36 1072.37 4468 1070.36C4472.64 1068.31 4477.96 1067.29 4483.96 1067.29C4489.97 1067.29 4495.32 1068.31 4500 1070.36C4504.69 1072.37 4508.62 1075.17 4511.8 1078.79C4515.02 1082.4 4517.46 1086.67 4519.12 1091.6C4520.78 1096.49 4521.61 1101.83 4521.61 1107.64V1109.18C4521.61 1114.94 4520.78 1120.29 4519.12 1125.22C4517.46 1130.1 4515.02 1134.38 4511.8 1138.04C4508.62 1141.65 4504.72 1144.46 4500.08 1146.46C4495.44 1148.46 4490.12 1149.46 4484.11 1149.46C4478.11 1149.46 4472.76 1148.46 4468.07 1146.46C4463.43 1144.46 4459.5 1141.65 4456.28 1138.04C4453.11 1134.38 4450.69 1130.1 4449.03 1125.22C4447.37 1120.29 4446.54 1114.94 4446.54 1109.18ZM4467.63 1107.64V1109.18C4467.63 1112.5 4467.92 1115.6 4468.51 1118.48C4469.1 1121.36 4470.02 1123.9 4471.29 1126.1C4472.61 1128.25 4474.32 1129.93 4476.42 1131.15C4478.52 1132.38 4481.08 1132.99 4484.11 1132.99C4487.04 1132.99 4489.56 1132.38 4491.66 1131.15C4493.75 1129.93 4495.44 1128.25 4496.71 1126.1C4497.98 1123.9 4498.91 1121.36 4499.49 1118.48C4500.13 1115.6 4500.44 1112.5 4500.44 1109.18V1107.64C4500.44 1104.42 4500.13 1101.39 4499.49 1098.56C4498.91 1095.68 4497.95 1093.14 4496.64 1090.94C4495.37 1088.7 4493.68 1086.94 4491.58 1085.67C4489.48 1084.4 4486.94 1083.77 4483.96 1083.77C4480.99 1083.77 4478.45 1084.4 4476.35 1085.67C4474.3 1086.94 4472.61 1088.7 4471.29 1090.94C4470.02 1093.14 4469.1 1095.68 4468.51 1098.56C4467.92 1101.39 4467.63 1104.42 4467.63 1107.64Z" fill="#828282"/>
<path d="M4555.23 1085.67V1148H4534.14V1068.75H4553.91L4555.23 1085.67ZM4552.15 1105.59H4546.44C4546.44 1099.73 4547.2 1094.46 4548.71 1089.77C4550.22 1085.04 4552.35 1081.01 4555.08 1077.69C4557.82 1074.32 4561.06 1071.75 4564.82 1070C4568.63 1068.19 4572.88 1067.29 4577.57 1067.29C4581.28 1067.29 4584.67 1067.82 4587.75 1068.9C4590.83 1069.97 4593.46 1071.68 4595.66 1074.03C4597.91 1076.37 4599.61 1079.47 4600.79 1083.33C4602.01 1087.18 4602.62 1091.9 4602.62 1097.46V1148H4581.38V1097.39C4581.38 1093.87 4580.89 1091.14 4579.91 1089.19C4578.94 1087.23 4577.5 1085.87 4575.59 1085.08C4573.74 1084.25 4571.44 1083.84 4568.71 1083.84C4565.87 1083.84 4563.41 1084.4 4561.31 1085.52C4559.26 1086.65 4557.55 1088.21 4556.18 1090.21C4554.86 1092.17 4553.86 1094.46 4553.18 1097.1C4552.5 1099.73 4552.15 1102.57 4552.15 1105.59Z" fill="#828282"/>
<path d="M4694.83 1068.75V1083.69H4648.69V1068.75H4694.83ZM4660.11 1049.2H4681.21V1124.12C4681.21 1126.42 4681.5 1128.18 4682.08 1129.4C4682.72 1130.62 4683.65 1131.47 4684.87 1131.96C4686.09 1132.4 4687.63 1132.62 4689.48 1132.62C4690.8 1132.62 4691.97 1132.57 4693 1132.47C4694.07 1132.33 4694.98 1132.18 4695.71 1132.03L4695.78 1147.56C4693.97 1148.15 4692.02 1148.61 4689.92 1148.95C4687.82 1149.29 4685.5 1149.46 4682.96 1149.46C4678.33 1149.46 4674.27 1148.71 4670.81 1147.19C4667.39 1145.63 4664.75 1143.14 4662.9 1139.72C4661.04 1136.31 4660.11 1131.81 4660.11 1126.25V1049.2Z" fill="#828282"/>
<path d="M4727.42 1035.5V1148H4706.33V1035.5H4727.42ZM4724.42 1105.59H4718.63C4718.68 1100.08 4719.41 1095 4720.83 1090.36C4722.25 1085.67 4724.27 1081.62 4726.91 1078.2C4729.55 1074.73 4732.7 1072.05 4736.36 1070.14C4740.07 1068.24 4744.17 1067.29 4748.66 1067.29C4752.57 1067.29 4756.11 1067.85 4759.28 1068.97C4762.5 1070.05 4765.26 1071.8 4767.56 1074.25C4769.9 1076.64 4771.71 1079.79 4772.98 1083.69C4774.25 1087.6 4774.88 1092.34 4774.88 1097.9V1148H4753.64V1097.76C4753.64 1094.24 4753.13 1091.48 4752.1 1089.48C4751.13 1087.43 4749.69 1085.99 4747.78 1085.16C4745.93 1084.28 4743.63 1083.84 4740.9 1083.84C4737.87 1083.84 4735.28 1084.4 4733.13 1085.52C4731.04 1086.65 4729.35 1088.21 4728.08 1090.21C4726.81 1092.17 4725.88 1094.46 4725.3 1097.1C4724.71 1099.73 4724.42 1102.57 4724.42 1105.59Z" fill="#828282"/>
<path d="M4827.4 1149.46C4821.25 1149.46 4815.73 1148.49 4810.84 1146.54C4805.96 1144.53 4801.81 1141.77 4798.39 1138.26C4795.02 1134.74 4792.44 1130.67 4790.63 1126.03C4788.82 1121.34 4787.92 1116.36 4787.92 1111.09V1108.16C4787.92 1102.15 4788.77 1096.66 4790.48 1091.68C4792.19 1086.7 4794.63 1082.38 4797.81 1078.71C4801.03 1075.05 4804.94 1072.24 4809.53 1070.29C4814.12 1068.29 4819.29 1067.29 4825.05 1067.29C4830.67 1067.29 4835.65 1068.21 4840 1070.07C4844.34 1071.93 4847.98 1074.56 4850.91 1077.98C4853.89 1081.4 4856.13 1085.5 4857.65 1090.29C4859.16 1095.02 4859.92 1100.29 4859.92 1106.11V1114.89H4796.93V1100.83H4839.19V1099.22C4839.19 1096.29 4838.65 1093.68 4837.58 1091.38C4836.55 1089.04 4834.99 1087.18 4832.89 1085.82C4830.79 1084.45 4828.11 1083.77 4824.83 1083.77C4822.05 1083.77 4819.66 1084.38 4817.66 1085.6C4815.65 1086.82 4814.02 1088.53 4812.75 1090.72C4811.53 1092.92 4810.6 1095.51 4809.97 1098.49C4809.38 1101.42 4809.09 1104.64 4809.09 1108.16V1111.09C4809.09 1114.26 4809.53 1117.19 4810.41 1119.88C4811.33 1122.56 4812.63 1124.88 4814.29 1126.83C4816 1128.79 4818.05 1130.3 4820.44 1131.37C4822.88 1132.45 4825.64 1132.99 4828.72 1132.99C4832.52 1132.99 4836.06 1132.25 4839.34 1130.79C4842.66 1129.27 4845.51 1127 4847.91 1123.98L4858.16 1135.11C4856.5 1137.5 4854.23 1139.8 4851.35 1141.99C4848.52 1144.19 4845.1 1146 4841.09 1147.41C4837.09 1148.78 4832.52 1149.46 4827.4 1149.46Z" fill="#828282"/>
<path d="M2408.21 1259.99V1354.47H2387.11V1244.75H2406.67L2408.21 1259.99ZM2458.38 1283.5V1285.04C2458.38 1290.8 2457.7 1296.14 2456.33 1301.08C2455.01 1306.01 2453.06 1310.3 2450.47 1313.97C2447.88 1317.58 2444.66 1320.41 2440.8 1322.46C2436.99 1324.46 2432.6 1325.46 2427.62 1325.46C2422.78 1325.46 2418.58 1324.49 2415.02 1322.54C2411.46 1320.58 2408.45 1317.85 2406.01 1314.33C2403.62 1310.77 2401.69 1306.64 2400.22 1301.95C2398.76 1297.27 2397.64 1292.24 2396.86 1286.87V1282.84C2397.64 1277.08 2398.76 1271.8 2400.22 1267.02C2401.69 1262.18 2403.62 1258.01 2406.01 1254.49C2408.45 1250.93 2411.43 1248.17 2414.95 1246.22C2418.51 1244.26 2422.69 1243.29 2427.47 1243.29C2432.5 1243.29 2436.92 1244.24 2440.73 1246.14C2444.58 1248.05 2447.81 1250.78 2450.4 1254.35C2453.03 1257.91 2455.01 1262.16 2456.33 1267.09C2457.7 1272.02 2458.38 1277.49 2458.38 1283.5ZM2437.21 1285.04V1283.5C2437.21 1280.13 2436.92 1277.03 2436.33 1274.2C2435.8 1271.31 2434.92 1268.8 2433.7 1266.65C2432.52 1264.5 2430.96 1262.84 2429.01 1261.67C2427.1 1260.45 2424.79 1259.84 2422.05 1259.84C2419.17 1259.84 2416.7 1260.3 2414.65 1261.23C2412.65 1262.16 2411.02 1263.5 2409.75 1265.26C2408.48 1267.02 2407.52 1269.12 2406.89 1271.56C2406.25 1274 2405.86 1276.76 2405.72 1279.83V1290.02C2405.96 1293.63 2406.65 1296.88 2407.77 1299.76C2408.89 1302.59 2410.62 1304.83 2412.97 1306.5C2415.31 1308.16 2418.39 1308.99 2422.2 1308.99C2424.98 1308.99 2427.32 1308.38 2429.23 1307.15C2431.13 1305.88 2432.67 1304.15 2433.84 1301.95C2435.06 1299.76 2435.92 1297.22 2436.41 1294.34C2436.94 1291.46 2437.21 1288.36 2437.21 1285.04Z" fill="#828282"/>
<path d="M2507.96 1325.46C2501.81 1325.46 2496.29 1324.49 2491.41 1322.54C2486.53 1320.53 2482.38 1317.77 2478.96 1314.26C2475.59 1310.74 2473 1306.67 2471.2 1302.03C2469.39 1297.34 2468.49 1292.36 2468.49 1287.09V1284.16C2468.49 1278.15 2469.34 1272.66 2471.05 1267.68C2472.76 1262.7 2475.2 1258.38 2478.37 1254.71C2481.6 1251.05 2485.5 1248.24 2490.09 1246.29C2494.68 1244.29 2499.86 1243.29 2505.62 1243.29C2511.24 1243.29 2516.22 1244.21 2520.56 1246.07C2524.91 1247.93 2528.54 1250.56 2531.47 1253.98C2534.45 1257.4 2536.7 1261.5 2538.21 1266.29C2539.73 1271.02 2540.48 1276.29 2540.48 1282.11V1290.89H2477.5V1276.83H2519.76V1275.22C2519.76 1272.29 2519.22 1269.68 2518.14 1267.38C2517.12 1265.04 2515.56 1263.18 2513.46 1261.82C2511.36 1260.45 2508.67 1259.77 2505.4 1259.77C2502.62 1259.77 2500.22 1260.38 2498.22 1261.6C2496.22 1262.82 2494.58 1264.53 2493.32 1266.72C2492.09 1268.92 2491.17 1271.51 2490.53 1274.49C2489.95 1277.42 2489.65 1280.64 2489.65 1284.16V1287.09C2489.65 1290.26 2490.09 1293.19 2490.97 1295.88C2491.9 1298.56 2493.19 1300.88 2494.85 1302.83C2496.56 1304.79 2498.61 1306.3 2501.01 1307.37C2503.45 1308.45 2506.21 1308.99 2509.28 1308.99C2513.09 1308.99 2516.63 1308.25 2519.9 1306.79C2523.22 1305.27 2526.08 1303 2528.47 1299.98L2538.73 1311.11C2537.07 1313.5 2534.79 1315.8 2531.91 1317.99C2529.08 1320.19 2525.66 1322 2521.66 1323.41C2517.66 1324.78 2513.09 1325.46 2507.96 1325.46Z" fill="#828282"/>
<path d="M2573.59 1262.04V1324H2552.5V1244.75H2572.34L2573.59 1262.04ZM2597.47 1244.24L2597.1 1263.79C2596.07 1263.65 2594.83 1263.53 2593.36 1263.43C2591.95 1263.28 2590.65 1263.21 2589.48 1263.21C2586.5 1263.21 2583.92 1263.6 2581.72 1264.38C2579.57 1265.11 2577.76 1266.21 2576.3 1267.68C2574.88 1269.14 2573.81 1270.92 2573.08 1273.02C2572.39 1275.12 2572 1277.52 2571.9 1280.2L2567.66 1278.88C2567.66 1273.76 2568.17 1269.04 2569.19 1264.75C2570.22 1260.4 2571.71 1256.62 2573.66 1253.39C2575.66 1250.17 2578.11 1247.68 2580.99 1245.92C2583.87 1244.17 2587.16 1243.29 2590.87 1243.29C2592.05 1243.29 2593.24 1243.38 2594.46 1243.58C2595.68 1243.73 2596.68 1243.95 2597.47 1244.24Z" fill="#828282"/>
<path d="M2635.77 1324H2614.53V1237.72C2614.53 1231.71 2615.7 1226.66 2618.05 1222.56C2620.44 1218.41 2623.78 1215.28 2628.08 1213.18C2632.43 1211.04 2637.58 1209.96 2643.54 1209.96C2645.49 1209.96 2647.37 1210.11 2649.17 1210.4C2650.98 1210.65 2652.74 1210.96 2654.45 1211.35L2654.23 1227.25C2653.3 1227 2652.32 1226.83 2651.3 1226.73C2650.27 1226.64 2649.08 1226.59 2647.71 1226.59C2645.17 1226.59 2643 1227.03 2641.19 1227.91C2639.43 1228.74 2638.09 1229.98 2637.16 1231.64C2636.24 1233.3 2635.77 1235.33 2635.77 1237.72V1324ZM2651.59 1244.75V1259.69H2602.74V1244.75H2651.59Z" fill="#828282"/>
<path d="M2659.28 1285.18V1283.64C2659.28 1277.83 2660.11 1272.49 2661.77 1267.6C2663.43 1262.67 2665.85 1258.4 2669.02 1254.79C2672.2 1251.17 2676.1 1248.37 2680.74 1246.36C2685.38 1244.31 2690.7 1243.29 2696.71 1243.29C2702.71 1243.29 2708.06 1244.31 2712.75 1246.36C2717.44 1248.37 2721.37 1251.17 2724.54 1254.79C2727.76 1258.4 2730.21 1262.67 2731.87 1267.6C2733.53 1272.49 2734.36 1277.83 2734.36 1283.64V1285.18C2734.36 1290.94 2733.53 1296.29 2731.87 1301.22C2730.21 1306.1 2727.76 1310.38 2724.54 1314.04C2721.37 1317.65 2717.46 1320.46 2712.82 1322.46C2708.18 1324.46 2702.86 1325.46 2696.86 1325.46C2690.85 1325.46 2685.5 1324.46 2680.82 1322.46C2676.18 1320.46 2672.25 1317.65 2669.02 1314.04C2665.85 1310.38 2663.43 1306.1 2661.77 1301.22C2660.11 1296.29 2659.28 1290.94 2659.28 1285.18ZM2680.38 1283.64V1285.18C2680.38 1288.5 2680.67 1291.6 2681.25 1294.48C2681.84 1297.36 2682.77 1299.9 2684.04 1302.1C2685.36 1304.25 2687.07 1305.93 2689.17 1307.15C2691.26 1308.38 2693.83 1308.99 2696.86 1308.99C2699.79 1308.99 2702.3 1308.38 2704.4 1307.15C2706.5 1305.93 2708.18 1304.25 2709.45 1302.1C2710.72 1299.9 2711.65 1297.36 2712.24 1294.48C2712.87 1291.6 2713.19 1288.5 2713.19 1285.18V1283.64C2713.19 1280.42 2712.87 1277.39 2712.24 1274.56C2711.65 1271.68 2710.7 1269.14 2709.38 1266.94C2708.11 1264.7 2706.43 1262.94 2704.33 1261.67C2702.23 1260.4 2699.69 1259.77 2696.71 1259.77C2693.73 1259.77 2691.19 1260.4 2689.09 1261.67C2687.04 1262.94 2685.36 1264.7 2684.04 1266.94C2682.77 1269.14 2681.84 1271.68 2681.25 1274.56C2680.67 1277.39 2680.38 1280.42 2680.38 1283.64Z" fill="#828282"/>
<path d="M2768.41 1262.04V1324H2747.32V1244.75H2767.17L2768.41 1262.04ZM2792.29 1244.24L2791.92 1263.79C2790.9 1263.65 2789.65 1263.53 2788.19 1263.43C2786.77 1263.28 2785.48 1263.21 2784.31 1263.21C2781.33 1263.21 2778.74 1263.6 2776.54 1264.38C2774.39 1265.11 2772.59 1266.21 2771.12 1267.68C2769.71 1269.14 2768.63 1270.92 2767.9 1273.02C2767.22 1275.12 2766.83 1277.52 2766.73 1280.2L2762.48 1278.88C2762.48 1273.76 2762.99 1269.04 2764.02 1264.75C2765.04 1260.4 2766.53 1256.62 2768.49 1253.39C2770.49 1250.17 2772.93 1247.68 2775.81 1245.92C2778.69 1244.17 2781.99 1243.29 2785.7 1243.29C2786.87 1243.29 2788.07 1243.38 2789.29 1243.58C2790.51 1243.73 2791.51 1243.95 2792.29 1244.24Z" fill="#828282"/>
<path d="M2823.34 1261.16V1324H2802.18V1244.75H2822.03L2823.34 1261.16ZM2820.42 1281.59H2814.56C2814.56 1276.08 2815.21 1271 2816.53 1266.36C2817.9 1261.67 2819.88 1257.62 2822.47 1254.2C2825.1 1250.73 2828.35 1248.05 2832.21 1246.14C2836.06 1244.24 2840.53 1243.29 2845.61 1243.29C2849.13 1243.29 2852.35 1243.82 2855.28 1244.9C2858.21 1245.92 2860.72 1247.56 2862.82 1249.81C2864.97 1252 2866.63 1254.88 2867.8 1258.45C2868.97 1261.96 2869.56 1266.19 2869.56 1271.12V1324H2848.47V1273.46C2848.47 1269.85 2847.98 1267.07 2847 1265.11C2846.03 1263.16 2844.63 1261.79 2842.83 1261.01C2841.07 1260.23 2838.95 1259.84 2836.46 1259.84C2833.72 1259.84 2831.33 1260.4 2829.28 1261.52C2827.28 1262.65 2825.62 1264.21 2824.3 1266.21C2822.98 1268.17 2822 1270.46 2821.37 1273.1C2820.73 1275.73 2820.42 1278.57 2820.42 1281.59ZM2867.58 1279.18L2860.04 1280.13C2860.04 1274.95 2860.67 1270.14 2861.94 1265.7C2863.26 1261.26 2865.19 1257.35 2867.73 1253.98C2870.32 1250.61 2873.52 1248 2877.32 1246.14C2881.13 1244.24 2885.53 1243.29 2890.51 1243.29C2894.32 1243.29 2897.78 1243.85 2900.91 1244.97C2904.03 1246.05 2906.69 1247.78 2908.89 1250.17C2911.14 1252.52 2912.85 1255.59 2914.02 1259.4C2915.24 1263.21 2915.85 1267.87 2915.85 1273.39V1324H2894.68V1273.39C2894.68 1269.73 2894.19 1266.94 2893.22 1265.04C2892.29 1263.09 2890.92 1261.74 2889.12 1261.01C2887.36 1260.23 2885.26 1259.84 2882.82 1259.84C2880.28 1259.84 2878.06 1260.35 2876.15 1261.38C2874.25 1262.35 2872.66 1263.72 2871.39 1265.48C2870.12 1267.24 2869.17 1269.29 2868.54 1271.63C2867.9 1273.93 2867.58 1276.44 2867.58 1279.18Z" fill="#828282"/>
<path d="M2974.96 1306.13V1270.83C2974.96 1268.29 2974.54 1266.11 2973.71 1264.31C2972.88 1262.45 2971.59 1261.01 2969.83 1259.99C2968.12 1258.96 2965.9 1258.45 2963.16 1258.45C2960.82 1258.45 2958.79 1258.86 2957.08 1259.69C2955.38 1260.47 2954.06 1261.62 2953.13 1263.14C2952.2 1264.6 2951.74 1266.33 2951.74 1268.34H2930.64C2930.64 1264.97 2931.43 1261.77 2932.99 1258.74C2934.55 1255.71 2936.82 1253.05 2939.8 1250.76C2942.78 1248.41 2946.32 1246.58 2950.42 1245.26C2954.57 1243.95 2959.21 1243.29 2964.34 1243.29C2970.49 1243.29 2975.96 1244.31 2980.74 1246.36C2985.53 1248.41 2989.29 1251.49 2992.02 1255.59C2994.8 1259.69 2996.2 1264.82 2996.2 1270.97V1304.88C2996.2 1309.23 2996.46 1312.79 2997 1315.58C2997.54 1318.31 2998.32 1320.7 2999.35 1322.75V1324H2978.03C2977.01 1321.85 2976.23 1319.17 2975.69 1315.94C2975.2 1312.67 2974.96 1309.4 2974.96 1306.13ZM2977.74 1275.73L2977.89 1287.67H2966.09C2963.31 1287.67 2960.89 1287.99 2958.84 1288.62C2956.79 1289.26 2955.11 1290.16 2953.79 1291.33C2952.47 1292.46 2951.49 1293.78 2950.86 1295.29C2950.27 1296.8 2949.98 1298.46 2949.98 1300.27C2949.98 1302.08 2950.4 1303.71 2951.23 1305.18C2952.06 1306.59 2953.25 1307.72 2954.81 1308.55C2956.38 1309.33 2958.21 1309.72 2960.31 1309.72C2963.48 1309.72 2966.24 1309.08 2968.58 1307.81C2970.93 1306.54 2972.73 1304.98 2974 1303.13C2975.32 1301.27 2976.01 1299.51 2976.05 1297.85L2981.62 1306.79C2980.84 1308.79 2979.77 1310.87 2978.4 1313.01C2977.08 1315.16 2975.4 1317.19 2973.34 1319.09C2971.29 1320.95 2968.83 1322.49 2965.95 1323.71C2963.07 1324.88 2959.65 1325.46 2955.69 1325.46C2950.66 1325.46 2946.1 1324.46 2942 1322.46C2937.94 1320.41 2934.72 1317.6 2932.33 1314.04C2929.99 1310.43 2928.81 1306.32 2928.81 1301.73C2928.81 1297.58 2929.59 1293.9 2931.16 1290.67C2932.72 1287.45 2935.01 1284.74 2938.04 1282.54C2941.12 1280.3 2944.95 1278.61 2949.54 1277.49C2954.13 1276.32 2959.45 1275.73 2965.51 1275.73H2977.74Z" fill="#828282"/>
<path d="M3033.11 1261.67V1324H3012.02V1244.75H3031.79L3033.11 1261.67ZM3030.03 1281.59H3024.32C3024.32 1275.73 3025.08 1270.46 3026.59 1265.77C3028.11 1261.04 3030.23 1257.01 3032.96 1253.69C3035.7 1250.32 3038.95 1247.75 3042.71 1246C3046.51 1244.19 3050.76 1243.29 3055.45 1243.29C3059.16 1243.29 3062.55 1243.82 3065.63 1244.9C3068.71 1245.97 3071.34 1247.68 3073.54 1250.03C3075.79 1252.37 3077.5 1255.47 3078.67 1259.33C3079.89 1263.18 3080.5 1267.9 3080.5 1273.46V1324H3059.26V1273.39C3059.26 1269.87 3058.77 1267.14 3057.79 1265.19C3056.82 1263.23 3055.38 1261.87 3053.47 1261.08C3051.62 1260.25 3049.32 1259.84 3046.59 1259.84C3043.75 1259.84 3041.29 1260.4 3039.19 1261.52C3037.14 1262.65 3035.43 1264.21 3034.06 1266.21C3032.74 1268.17 3031.74 1270.46 3031.06 1273.1C3030.38 1275.73 3030.03 1278.57 3030.03 1281.59Z" fill="#828282"/>
<path d="M3129.28 1308.99C3131.87 1308.99 3134.16 1308.5 3136.16 1307.52C3138.16 1306.5 3139.73 1305.08 3140.85 1303.27C3142.02 1301.42 3142.63 1299.24 3142.68 1296.75H3162.53C3162.48 1302.32 3160.99 1307.28 3158.06 1311.62C3155.13 1315.92 3151.2 1319.31 3146.27 1321.8C3141.34 1324.24 3135.82 1325.46 3129.72 1325.46C3123.56 1325.46 3118.19 1324.44 3113.6 1322.39C3109.06 1320.34 3105.28 1317.51 3102.25 1313.89C3099.22 1310.23 3096.95 1305.98 3095.44 1301.15C3093.93 1296.27 3093.17 1291.04 3093.17 1285.47V1283.35C3093.17 1277.74 3093.93 1272.51 3095.44 1267.68C3096.95 1262.79 3099.22 1258.55 3102.25 1254.93C3105.28 1251.27 3109.06 1248.41 3113.6 1246.36C3118.14 1244.31 3123.47 1243.29 3129.57 1243.29C3136.06 1243.29 3141.75 1244.53 3146.64 1247.02C3151.57 1249.51 3155.42 1253.08 3158.21 1257.72C3161.04 1262.31 3162.48 1267.75 3162.53 1274.05H3142.68C3142.63 1271.41 3142.07 1269.02 3141 1266.87C3139.97 1264.72 3138.46 1263.01 3136.46 1261.74C3134.5 1260.43 3132.08 1259.77 3129.2 1259.77C3126.13 1259.77 3123.61 1260.43 3121.66 1261.74C3119.71 1263.01 3118.19 1264.77 3117.12 1267.02C3116.04 1269.21 3115.29 1271.73 3114.85 1274.56C3114.46 1277.34 3114.26 1280.27 3114.26 1283.35V1285.47C3114.26 1288.55 3114.46 1291.5 3114.85 1294.34C3115.24 1297.17 3115.97 1299.68 3117.05 1301.88C3118.17 1304.08 3119.71 1305.81 3121.66 1307.08C3123.61 1308.35 3126.15 1308.99 3129.28 1308.99Z" fill="#828282"/>
<path d="M3211.24 1325.46C3205.08 1325.46 3199.57 1324.49 3194.68 1322.54C3189.8 1320.53 3185.65 1317.77 3182.23 1314.26C3178.86 1310.74 3176.27 1306.67 3174.47 1302.03C3172.66 1297.34 3171.76 1292.36 3171.76 1287.09V1284.16C3171.76 1278.15 3172.61 1272.66 3174.32 1267.68C3176.03 1262.7 3178.47 1258.38 3181.65 1254.71C3184.87 1251.05 3188.77 1248.24 3193.36 1246.29C3197.95 1244.29 3203.13 1243.29 3208.89 1243.29C3214.51 1243.29 3219.49 1244.21 3223.83 1246.07C3228.18 1247.93 3231.82 1250.56 3234.75 1253.98C3237.72 1257.4 3239.97 1261.5 3241.48 1266.29C3243 1271.02 3243.75 1276.29 3243.75 1282.11V1290.89H3180.77V1276.83H3223.03V1275.22C3223.03 1272.29 3222.49 1269.68 3221.42 1267.38C3220.39 1265.04 3218.83 1263.18 3216.73 1261.82C3214.63 1260.45 3211.94 1259.77 3208.67 1259.77C3205.89 1259.77 3203.5 1260.38 3201.49 1261.6C3199.49 1262.82 3197.86 1264.53 3196.59 1266.72C3195.37 1268.92 3194.44 1271.51 3193.8 1274.49C3193.22 1277.42 3192.92 1280.64 3192.92 1284.16V1287.09C3192.92 1290.26 3193.36 1293.19 3194.24 1295.88C3195.17 1298.56 3196.46 1300.88 3198.12 1302.83C3199.83 1304.79 3201.88 1306.3 3204.28 1307.37C3206.72 1308.45 3209.48 1308.99 3212.55 1308.99C3216.36 1308.99 3219.9 1308.25 3223.17 1306.79C3226.49 1305.27 3229.35 1303 3231.74 1299.98L3242 1311.11C3240.34 1313.5 3238.07 1315.8 3235.19 1317.99C3232.35 1320.19 3228.94 1322 3224.93 1323.41C3220.93 1324.78 3216.36 1325.46 3211.24 1325.46Z" fill="#828282"/>
<path d="M3289.75 1285.18V1283.64C3289.75 1277.83 3290.58 1272.49 3292.24 1267.6C3293.9 1262.67 3296.32 1258.4 3299.49 1254.79C3302.67 1251.17 3306.57 1248.37 3311.21 1246.36C3315.85 1244.31 3321.17 1243.29 3327.18 1243.29C3333.18 1243.29 3338.53 1244.31 3343.22 1246.36C3347.91 1248.37 3351.84 1251.17 3355.01 1254.79C3358.23 1258.4 3360.67 1262.67 3362.33 1267.6C3363.99 1272.49 3364.82 1277.83 3364.82 1283.64V1285.18C3364.82 1290.94 3363.99 1296.29 3362.33 1301.22C3360.67 1306.1 3358.23 1310.38 3355.01 1314.04C3351.84 1317.65 3347.93 1320.46 3343.29 1322.46C3338.65 1324.46 3333.33 1325.46 3327.32 1325.46C3321.32 1325.46 3315.97 1324.46 3311.28 1322.46C3306.65 1320.46 3302.71 1317.65 3299.49 1314.04C3296.32 1310.38 3293.9 1306.1 3292.24 1301.22C3290.58 1296.29 3289.75 1290.94 3289.75 1285.18ZM3310.84 1283.64V1285.18C3310.84 1288.5 3311.14 1291.6 3311.72 1294.48C3312.31 1297.36 3313.24 1299.9 3314.51 1302.1C3315.83 1304.25 3317.53 1305.93 3319.63 1307.15C3321.73 1308.38 3324.3 1308.99 3327.32 1308.99C3330.25 1308.99 3332.77 1308.38 3334.87 1307.15C3336.97 1305.93 3338.65 1304.25 3339.92 1302.1C3341.19 1299.9 3342.12 1297.36 3342.71 1294.48C3343.34 1291.6 3343.66 1288.5 3343.66 1285.18V1283.64C3343.66 1280.42 3343.34 1277.39 3342.71 1274.56C3342.12 1271.68 3341.17 1269.14 3339.85 1266.94C3338.58 1264.7 3336.89 1262.94 3334.79 1261.67C3332.7 1260.4 3330.16 1259.77 3327.18 1259.77C3324.2 1259.77 3321.66 1260.4 3319.56 1261.67C3317.51 1262.94 3315.83 1264.7 3314.51 1266.94C3313.24 1269.14 3312.31 1271.68 3311.72 1274.56C3311.14 1277.39 3310.84 1280.42 3310.84 1283.64Z" fill="#828282"/>
<path d="M3404.67 1324H3383.43V1237.72C3383.43 1231.71 3384.6 1226.66 3386.94 1222.56C3389.34 1218.41 3392.68 1215.28 3396.98 1213.18C3401.32 1211.04 3406.47 1209.96 3412.43 1209.96C3414.38 1209.96 3416.26 1210.11 3418.07 1210.4C3419.88 1210.65 3421.64 1210.96 3423.34 1211.35L3423.12 1227.25C3422.2 1227 3421.22 1226.83 3420.2 1226.73C3419.17 1226.64 3417.97 1226.59 3416.61 1226.59C3414.07 1226.59 3411.89 1227.03 3410.09 1227.91C3408.33 1228.74 3406.99 1229.98 3406.06 1231.64C3405.13 1233.3 3404.67 1235.33 3404.67 1237.72V1324ZM3420.49 1244.75V1259.69H3371.64V1244.75H3420.49Z" fill="#828282"/>
<path d="M3511.75 1302.1C3511.75 1300.59 3511.31 1299.22 3510.43 1298C3509.55 1296.78 3507.92 1295.66 3505.52 1294.63C3503.18 1293.56 3499.79 1292.58 3495.34 1291.7C3491.34 1290.82 3487.6 1289.72 3484.14 1288.4C3480.72 1287.04 3477.74 1285.4 3475.2 1283.5C3472.71 1281.59 3470.76 1279.35 3469.34 1276.76C3467.92 1274.12 3467.22 1271.12 3467.22 1267.75C3467.22 1264.43 3467.92 1261.3 3469.34 1258.38C3470.81 1255.45 3472.88 1252.86 3475.57 1250.61C3478.3 1248.32 3481.62 1246.53 3485.53 1245.26C3489.48 1243.95 3493.93 1243.29 3498.86 1243.29C3505.74 1243.29 3511.65 1244.39 3516.58 1246.58C3521.56 1248.78 3525.37 1251.81 3528.01 1255.67C3530.69 1259.47 3532.04 1263.82 3532.04 1268.7H3510.94C3510.94 1266.65 3510.5 1264.82 3509.62 1263.21C3508.79 1261.55 3507.48 1260.25 3505.67 1259.33C3503.91 1258.35 3501.62 1257.86 3498.78 1257.86C3496.44 1257.86 3494.41 1258.28 3492.71 1259.11C3491 1259.89 3489.68 1260.96 3488.75 1262.33C3487.87 1263.65 3487.43 1265.11 3487.43 1266.72C3487.43 1267.95 3487.68 1269.04 3488.16 1270.02C3488.7 1270.95 3489.56 1271.8 3490.73 1272.58C3491.9 1273.37 3493.41 1274.1 3495.27 1274.78C3497.17 1275.42 3499.52 1276 3502.3 1276.54C3508.01 1277.71 3513.12 1279.25 3517.61 1281.15C3522.1 1283.01 3525.66 1285.55 3528.3 1288.77C3530.94 1291.94 3532.26 1296.12 3532.26 1301.29C3532.26 1304.81 3531.47 1308.03 3529.91 1310.96C3528.35 1313.89 3526.1 1316.46 3523.17 1318.65C3520.24 1320.8 3516.73 1322.49 3512.63 1323.71C3508.57 1324.88 3504.01 1325.46 3498.93 1325.46C3491.56 1325.46 3485.31 1324.15 3480.18 1321.51C3475.1 1318.87 3471.25 1315.53 3468.61 1311.48C3466.02 1307.37 3464.73 1303.17 3464.73 1298.88H3484.72C3484.82 1301.76 3485.55 1304.08 3486.92 1305.84C3488.33 1307.59 3490.12 1308.86 3492.27 1309.64C3494.46 1310.43 3496.83 1310.82 3499.37 1310.82C3502.1 1310.82 3504.38 1310.45 3506.18 1309.72C3507.99 1308.94 3509.36 1307.91 3510.28 1306.64C3511.26 1305.32 3511.75 1303.81 3511.75 1302.1Z" fill="#828282"/>
<path d="M3542.58 1285.18V1283.64C3542.58 1277.83 3543.41 1272.49 3545.07 1267.6C3546.73 1262.67 3549.15 1258.4 3552.32 1254.79C3555.5 1251.17 3559.4 1248.37 3564.04 1246.36C3568.68 1244.31 3574 1243.29 3580.01 1243.29C3586.02 1243.29 3591.36 1244.31 3596.05 1246.36C3600.74 1248.37 3604.67 1251.17 3607.84 1254.79C3611.06 1258.4 3613.51 1262.67 3615.17 1267.6C3616.83 1272.49 3617.66 1277.83 3617.66 1283.64V1285.18C3617.66 1290.94 3616.83 1296.29 3615.17 1301.22C3613.51 1306.1 3611.06 1310.38 3607.84 1314.04C3604.67 1317.65 3600.76 1320.46 3596.12 1322.46C3591.48 1324.46 3586.16 1325.46 3580.16 1325.46C3574.15 1325.46 3568.8 1324.46 3564.12 1322.46C3559.48 1320.46 3555.55 1317.65 3552.32 1314.04C3549.15 1310.38 3546.73 1306.1 3545.07 1301.22C3543.41 1296.29 3542.58 1290.94 3542.58 1285.18ZM3563.68 1283.64V1285.18C3563.68 1288.5 3563.97 1291.6 3564.56 1294.48C3565.14 1297.36 3566.07 1299.9 3567.34 1302.1C3568.66 1304.25 3570.37 1305.93 3572.47 1307.15C3574.57 1308.38 3577.13 1308.99 3580.16 1308.99C3583.09 1308.99 3585.6 1308.38 3587.7 1307.15C3589.8 1305.93 3591.48 1304.25 3592.75 1302.1C3594.02 1299.9 3594.95 1297.36 3595.54 1294.48C3596.17 1291.6 3596.49 1288.5 3596.49 1285.18V1283.64C3596.49 1280.42 3596.17 1277.39 3595.54 1274.56C3594.95 1271.68 3594 1269.14 3592.68 1266.94C3591.41 1264.7 3589.73 1262.94 3587.63 1261.67C3585.53 1260.4 3582.99 1259.77 3580.01 1259.77C3577.03 1259.77 3574.49 1260.4 3572.39 1261.67C3570.34 1262.94 3568.66 1264.7 3567.34 1266.94C3566.07 1269.14 3565.14 1271.68 3564.56 1274.56C3563.97 1277.39 3563.68 1280.42 3563.68 1283.64Z" fill="#828282"/>
<path d="M3657.5 1324H3636.26V1237.72C3636.26 1231.71 3637.43 1226.66 3639.78 1222.56C3642.17 1218.41 3645.51 1215.28 3649.81 1213.18C3654.16 1211.04 3659.31 1209.96 3665.26 1209.96C3667.22 1209.96 3669.1 1210.11 3670.9 1210.4C3672.71 1210.65 3674.47 1210.96 3676.18 1211.35L3675.96 1227.25C3675.03 1227 3674.05 1226.83 3673.03 1226.73C3672 1226.64 3670.81 1226.59 3669.44 1226.59C3666.9 1226.59 3664.73 1227.03 3662.92 1227.91C3661.16 1228.74 3659.82 1229.98 3658.89 1231.64C3657.96 1233.3 3657.5 1235.33 3657.5 1237.72V1324ZM3673.32 1244.75V1259.69H3624.47V1244.75H3673.32Z" fill="#828282"/>
<path d="M3723.2 1244.75V1259.69H3677.06V1244.75H3723.2ZM3688.48 1225.2H3709.58V1300.12C3709.58 1302.42 3709.87 1304.18 3710.45 1305.4C3711.09 1306.62 3712.02 1307.47 3713.24 1307.96C3714.46 1308.4 3716 1308.62 3717.85 1308.62C3719.17 1308.62 3720.34 1308.57 3721.37 1308.47C3722.44 1308.33 3723.34 1308.18 3724.08 1308.03L3724.15 1323.56C3722.34 1324.15 3720.39 1324.61 3718.29 1324.95C3716.19 1325.29 3713.87 1325.46 3711.33 1325.46C3706.69 1325.46 3702.64 1324.71 3699.17 1323.19C3695.76 1321.63 3693.12 1319.14 3691.26 1315.72C3689.41 1312.31 3688.48 1307.81 3688.48 1302.25V1225.2Z" fill="#828282"/>
<path d="M3757.84 1303.49L3774.32 1244.75H3787.72L3783.4 1267.82L3766.92 1324H3755.72L3757.84 1303.49ZM3749.49 1244.75L3761.28 1303.42L3762.38 1324H3749.2L3729.13 1244.75H3749.49ZM3802.81 1302.47L3814.31 1244.75H3834.75L3814.68 1324H3801.57L3802.81 1302.47ZM3789.56 1244.75L3805.96 1303.05L3808.23 1324H3796.95L3780.47 1267.9L3776.3 1244.75H3789.56Z" fill="#828282"/>
<path d="M3888.14 1306.13V1270.83C3888.14 1268.29 3887.72 1266.11 3886.89 1264.31C3886.06 1262.45 3884.77 1261.01 3883.01 1259.99C3881.3 1258.96 3879.08 1258.45 3876.35 1258.45C3874 1258.45 3871.98 1258.86 3870.27 1259.69C3868.56 1260.47 3867.24 1261.62 3866.31 1263.14C3865.39 1264.6 3864.92 1266.33 3864.92 1268.34H3843.83C3843.83 1264.97 3844.61 1261.77 3846.17 1258.74C3847.73 1255.71 3850 1253.05 3852.98 1250.76C3855.96 1248.41 3859.5 1246.58 3863.6 1245.26C3867.75 1243.95 3872.39 1243.29 3877.52 1243.29C3883.67 1243.29 3889.14 1244.31 3893.93 1246.36C3898.71 1248.41 3902.47 1251.49 3905.21 1255.59C3907.99 1259.69 3909.38 1264.82 3909.38 1270.97V1304.88C3909.38 1309.23 3909.65 1312.79 3910.19 1315.58C3910.72 1318.31 3911.5 1320.7 3912.53 1322.75V1324H3891.22C3890.19 1321.85 3889.41 1319.17 3888.87 1315.94C3888.38 1312.67 3888.14 1309.4 3888.14 1306.13ZM3890.92 1275.73L3891.07 1287.67H3879.28C3876.49 1287.67 3874.08 1287.99 3872.03 1288.62C3869.98 1289.26 3868.29 1290.16 3866.97 1291.33C3865.65 1292.46 3864.68 1293.78 3864.04 1295.29C3863.46 1296.8 3863.16 1298.46 3863.16 1300.27C3863.16 1302.08 3863.58 1303.71 3864.41 1305.18C3865.24 1306.59 3866.44 1307.72 3868 1308.55C3869.56 1309.33 3871.39 1309.72 3873.49 1309.72C3876.67 1309.72 3879.42 1309.08 3881.77 1307.81C3884.11 1306.54 3885.92 1304.98 3887.19 1303.13C3888.51 1301.27 3889.19 1299.51 3889.24 1297.85L3894.8 1306.79C3894.02 1308.79 3892.95 1310.87 3891.58 1313.01C3890.26 1315.16 3888.58 1317.19 3886.53 1319.09C3884.48 1320.95 3882.01 1322.49 3879.13 1323.71C3876.25 1324.88 3872.83 1325.46 3868.88 1325.46C3863.85 1325.46 3859.28 1324.46 3855.18 1322.46C3851.13 1320.41 3847.91 1317.6 3845.51 1314.04C3843.17 1310.43 3842 1306.32 3842 1301.73C3842 1297.58 3842.78 1293.9 3844.34 1290.67C3845.9 1287.45 3848.2 1284.74 3851.23 1282.54C3854.3 1280.3 3858.13 1278.61 3862.72 1277.49C3867.31 1276.32 3872.64 1275.73 3878.69 1275.73H3890.92Z" fill="#828282"/>
<path d="M3946.73 1262.04V1324H3925.64V1244.75H3945.49L3946.73 1262.04ZM3970.61 1244.24L3970.24 1263.79C3969.22 1263.65 3967.97 1263.53 3966.51 1263.43C3965.09 1263.28 3963.8 1263.21 3962.63 1263.21C3959.65 1263.21 3957.06 1263.6 3954.86 1264.38C3952.71 1265.11 3950.91 1266.21 3949.44 1267.68C3948.03 1269.14 3946.95 1270.92 3946.22 1273.02C3945.54 1275.12 3945.15 1277.52 3945.05 1280.2L3940.8 1278.88C3940.8 1273.76 3941.31 1269.04 3942.34 1264.75C3943.36 1260.4 3944.85 1256.62 3946.81 1253.39C3948.81 1250.17 3951.25 1247.68 3954.13 1245.92C3957.01 1244.17 3960.31 1243.29 3964.02 1243.29C3965.19 1243.29 3966.39 1243.38 3967.61 1243.58C3968.83 1243.73 3969.83 1243.95 3970.61 1244.24Z" fill="#828282"/>
<path d="M4015.58 1325.46C4009.43 1325.46 4003.91 1324.49 3999.03 1322.54C3994.15 1320.53 3990 1317.77 3986.58 1314.26C3983.21 1310.74 3980.62 1306.67 3978.81 1302.03C3977.01 1297.34 3976.1 1292.36 3976.1 1287.09V1284.16C3976.1 1278.15 3976.96 1272.66 3978.67 1267.68C3980.38 1262.7 3982.82 1258.38 3985.99 1254.71C3989.21 1251.05 3993.12 1248.24 3997.71 1246.29C4002.3 1244.29 4007.48 1243.29 4013.24 1243.29C4018.85 1243.29 4023.83 1244.21 4028.18 1246.07C4032.52 1247.93 4036.16 1250.56 4039.09 1253.98C4042.07 1257.4 4044.32 1261.5 4045.83 1266.29C4047.34 1271.02 4048.1 1276.29 4048.1 1282.11V1290.89H3985.11V1276.83H4027.37V1275.22C4027.37 1272.29 4026.84 1269.68 4025.76 1267.38C4024.74 1265.04 4023.17 1263.18 4021.07 1261.82C4018.97 1260.45 4016.29 1259.77 4013.02 1259.77C4010.23 1259.77 4007.84 1260.38 4005.84 1261.6C4003.84 1262.82 4002.2 1264.53 4000.93 1266.72C3999.71 1268.92 3998.78 1271.51 3998.15 1274.49C3997.56 1277.42 3997.27 1280.64 3997.27 1284.16V1287.09C3997.27 1290.26 3997.71 1293.19 3998.59 1295.88C3999.52 1298.56 4000.81 1300.88 4002.47 1302.83C4004.18 1304.79 4006.23 1306.3 4008.62 1307.37C4011.06 1308.45 4013.82 1308.99 4016.9 1308.99C4020.71 1308.99 4024.25 1308.25 4027.52 1306.79C4030.84 1305.27 4033.7 1303 4036.09 1299.98L4046.34 1311.11C4044.68 1313.5 4042.41 1315.8 4039.53 1317.99C4036.7 1320.19 4033.28 1322 4029.28 1323.41C4025.27 1324.78 4020.71 1325.46 4015.58 1325.46Z" fill="#828282"/>
<path d="M4140.31 1302.1C4140.31 1300.59 4139.87 1299.22 4138.99 1298C4138.12 1296.78 4136.48 1295.66 4134.09 1294.63C4131.74 1293.56 4128.35 1292.58 4123.91 1291.7C4119.9 1290.82 4116.17 1289.72 4112.7 1288.4C4109.28 1287.04 4106.3 1285.4 4103.76 1283.5C4101.27 1281.59 4099.32 1279.35 4097.91 1276.76C4096.49 1274.12 4095.78 1271.12 4095.78 1267.75C4095.78 1264.43 4096.49 1261.3 4097.91 1258.38C4099.37 1255.45 4101.45 1252.86 4104.13 1250.61C4106.87 1248.32 4110.19 1246.53 4114.09 1245.26C4118.05 1243.95 4122.49 1243.29 4127.42 1243.29C4134.31 1243.29 4140.21 1244.39 4145.15 1246.58C4150.13 1248.78 4153.94 1251.81 4156.57 1255.67C4159.26 1259.47 4160.6 1263.82 4160.6 1268.7H4139.51C4139.51 1266.65 4139.07 1264.82 4138.19 1263.21C4137.36 1261.55 4136.04 1260.25 4134.23 1259.33C4132.48 1258.35 4130.18 1257.86 4127.35 1257.86C4125 1257.86 4122.98 1258.28 4121.27 1259.11C4119.56 1259.89 4118.24 1260.96 4117.31 1262.33C4116.44 1263.65 4116 1265.11 4116 1266.72C4116 1267.95 4116.24 1269.04 4116.73 1270.02C4117.27 1270.95 4118.12 1271.8 4119.29 1272.58C4120.46 1273.37 4121.98 1274.1 4123.83 1274.78C4125.74 1275.42 4128.08 1276 4130.86 1276.54C4136.58 1277.71 4141.68 1279.25 4146.17 1281.15C4150.66 1283.01 4154.23 1285.55 4156.87 1288.77C4159.5 1291.94 4160.82 1296.12 4160.82 1301.29C4160.82 1304.81 4160.04 1308.03 4158.48 1310.96C4156.91 1313.89 4154.67 1316.46 4151.74 1318.65C4148.81 1320.8 4145.29 1322.49 4141.19 1323.71C4137.14 1324.88 4132.57 1325.46 4127.5 1325.46C4120.12 1325.46 4113.87 1324.15 4108.75 1321.51C4103.67 1318.87 4099.81 1315.53 4097.17 1311.48C4094.58 1307.37 4093.29 1303.17 4093.29 1298.88H4113.29C4113.38 1301.76 4114.12 1304.08 4115.48 1305.84C4116.9 1307.59 4118.68 1308.86 4120.83 1309.64C4123.03 1310.43 4125.4 1310.82 4127.93 1310.82C4130.67 1310.82 4132.94 1310.45 4134.75 1309.72C4136.55 1308.94 4137.92 1307.91 4138.85 1306.64C4139.82 1305.32 4140.31 1303.81 4140.31 1302.1Z" fill="#828282"/>
<path d="M4171.15 1285.18V1283.64C4171.15 1277.83 4171.98 1272.49 4173.64 1267.6C4175.3 1262.67 4177.71 1258.4 4180.89 1254.79C4184.06 1251.17 4187.97 1248.37 4192.61 1246.36C4197.25 1244.31 4202.57 1243.29 4208.57 1243.29C4214.58 1243.29 4219.93 1244.31 4224.61 1246.36C4229.3 1248.37 4233.23 1251.17 4236.41 1254.79C4239.63 1258.4 4242.07 1262.67 4243.73 1267.6C4245.39 1272.49 4246.22 1277.83 4246.22 1283.64V1285.18C4246.22 1290.94 4245.39 1296.29 4243.73 1301.22C4242.07 1306.1 4239.63 1310.38 4236.41 1314.04C4233.23 1317.65 4229.33 1320.46 4224.69 1322.46C4220.05 1324.46 4214.73 1325.46 4208.72 1325.46C4202.71 1325.46 4197.37 1324.46 4192.68 1322.46C4188.04 1320.46 4184.11 1317.65 4180.89 1314.04C4177.71 1310.38 4175.3 1306.1 4173.64 1301.22C4171.98 1296.29 4171.15 1290.94 4171.15 1285.18ZM4192.24 1283.64V1285.18C4192.24 1288.5 4192.53 1291.6 4193.12 1294.48C4193.71 1297.36 4194.63 1299.9 4195.9 1302.1C4197.22 1304.25 4198.93 1305.93 4201.03 1307.15C4203.13 1308.38 4205.69 1308.99 4208.72 1308.99C4211.65 1308.99 4214.17 1308.38 4216.26 1307.15C4218.36 1305.93 4220.05 1304.25 4221.32 1302.1C4222.59 1299.9 4223.52 1297.36 4224.1 1294.48C4224.74 1291.6 4225.05 1288.5 4225.05 1285.18V1283.64C4225.05 1280.42 4224.74 1277.39 4224.1 1274.56C4223.52 1271.68 4222.56 1269.14 4221.25 1266.94C4219.98 1264.7 4218.29 1262.94 4216.19 1261.67C4214.09 1260.4 4211.55 1259.77 4208.57 1259.77C4205.6 1259.77 4203.06 1260.4 4200.96 1261.67C4198.91 1262.94 4197.22 1264.7 4195.9 1266.94C4194.63 1269.14 4193.71 1271.68 4193.12 1274.56C4192.53 1277.39 4192.24 1280.42 4192.24 1283.64Z" fill="#828282"/>
<path d="M4281.45 1211.5V1324H4260.28V1211.5H4281.45Z" fill="#828282"/>
<path d="M4345.76 1305.03V1244.75H4366.85V1324H4347L4345.76 1305.03ZM4348.1 1288.77L4354.33 1288.62C4354.33 1293.9 4353.72 1298.8 4352.5 1303.35C4351.27 1307.84 4349.44 1311.74 4347 1315.06C4344.56 1318.34 4341.48 1320.9 4337.77 1322.75C4334.06 1324.56 4329.69 1325.46 4324.66 1325.46C4320.81 1325.46 4317.24 1324.93 4313.97 1323.85C4310.75 1322.73 4307.96 1321 4305.62 1318.65C4303.33 1316.26 4301.52 1313.21 4300.2 1309.5C4298.93 1305.74 4298.3 1301.22 4298.3 1295.95V1244.75H4319.39V1296.09C4319.39 1298.44 4319.66 1300.42 4320.2 1302.03C4320.78 1303.64 4321.59 1304.96 4322.61 1305.98C4323.64 1307.01 4324.83 1307.74 4326.2 1308.18C4327.62 1308.62 4329.18 1308.84 4330.89 1308.84C4335.23 1308.84 4338.65 1307.96 4341.14 1306.2C4343.68 1304.44 4345.46 1302.05 4346.49 1299.02C4347.56 1295.95 4348.1 1292.53 4348.1 1288.77Z" fill="#828282"/>
<path d="M4421.78 1244.75V1259.69H4375.64V1244.75H4421.78ZM4387.07 1225.2H4408.16V1300.12C4408.16 1302.42 4408.45 1304.18 4409.04 1305.4C4409.67 1306.62 4410.6 1307.47 4411.82 1307.96C4413.04 1308.4 4414.58 1308.62 4416.44 1308.62C4417.75 1308.62 4418.93 1308.57 4419.95 1308.47C4421.03 1308.33 4421.93 1308.18 4422.66 1308.03L4422.73 1323.56C4420.93 1324.15 4418.97 1324.61 4416.88 1324.95C4414.78 1325.29 4412.46 1325.46 4409.92 1325.46C4405.28 1325.46 4401.23 1324.71 4397.76 1323.19C4394.34 1321.63 4391.7 1319.14 4389.85 1315.72C4387.99 1312.31 4387.07 1307.81 4387.07 1302.25V1225.2Z" fill="#828282"/>
<path d="M4456.06 1244.75V1324H4434.89V1244.75H4456.06ZM4433.57 1224.1C4433.57 1221.02 4434.65 1218.48 4436.8 1216.48C4438.95 1214.48 4441.83 1213.48 4445.44 1213.48C4449 1213.48 4451.86 1214.48 4454.01 1216.48C4456.21 1218.48 4457.3 1221.02 4457.3 1224.1C4457.3 1227.17 4456.21 1229.71 4454.01 1231.71C4451.86 1233.72 4449 1234.72 4445.44 1234.72C4441.83 1234.72 4438.95 1233.72 4436.8 1231.71C4434.65 1229.71 4433.57 1227.17 4433.57 1224.1Z" fill="#828282"/>
<path d="M4470.12 1285.18V1283.64C4470.12 1277.83 4470.95 1272.49 4472.61 1267.6C4474.27 1262.67 4476.69 1258.4 4479.86 1254.79C4483.04 1251.17 4486.94 1248.37 4491.58 1246.36C4496.22 1244.31 4501.54 1243.29 4507.55 1243.29C4513.55 1243.29 4518.9 1244.31 4523.59 1246.36C4528.28 1248.37 4532.21 1251.17 4535.38 1254.79C4538.6 1258.4 4541.04 1262.67 4542.71 1267.6C4544.37 1272.49 4545.2 1277.83 4545.2 1283.64V1285.18C4545.2 1290.94 4544.37 1296.29 4542.71 1301.22C4541.04 1306.1 4538.6 1310.38 4535.38 1314.04C4532.21 1317.65 4528.3 1320.46 4523.66 1322.46C4519.02 1324.46 4513.7 1325.46 4507.7 1325.46C4501.69 1325.46 4496.34 1324.46 4491.66 1322.46C4487.02 1320.46 4483.09 1317.65 4479.86 1314.04C4476.69 1310.38 4474.27 1306.1 4472.61 1301.22C4470.95 1296.29 4470.12 1290.94 4470.12 1285.18ZM4491.22 1283.64V1285.18C4491.22 1288.5 4491.51 1291.6 4492.09 1294.48C4492.68 1297.36 4493.61 1299.9 4494.88 1302.1C4496.2 1304.25 4497.91 1305.93 4500 1307.15C4502.1 1308.38 4504.67 1308.99 4507.7 1308.99C4510.62 1308.99 4513.14 1308.38 4515.24 1307.15C4517.34 1305.93 4519.02 1304.25 4520.29 1302.1C4521.56 1299.9 4522.49 1297.36 4523.08 1294.48C4523.71 1291.6 4524.03 1288.5 4524.03 1285.18V1283.64C4524.03 1280.42 4523.71 1277.39 4523.08 1274.56C4522.49 1271.68 4521.54 1269.14 4520.22 1266.94C4518.95 1264.7 4517.27 1262.94 4515.17 1261.67C4513.07 1260.4 4510.53 1259.77 4507.55 1259.77C4504.57 1259.77 4502.03 1260.4 4499.93 1261.67C4497.88 1262.94 4496.2 1264.7 4494.88 1266.94C4493.61 1269.14 4492.68 1271.68 4492.09 1274.56C4491.51 1277.39 4491.22 1280.42 4491.22 1283.64Z" fill="#828282"/>
<path d="M4578.81 1261.67V1324H4557.72V1244.75H4577.5L4578.81 1261.67ZM4575.74 1281.59H4570.02C4570.02 1275.73 4570.78 1270.46 4572.29 1265.77C4573.81 1261.04 4575.93 1257.01 4578.67 1253.69C4581.4 1250.32 4584.65 1247.75 4588.41 1246C4592.22 1244.19 4596.46 1243.29 4601.15 1243.29C4604.86 1243.29 4608.26 1243.82 4611.33 1244.9C4614.41 1245.97 4617.05 1247.68 4619.24 1250.03C4621.49 1252.37 4623.2 1255.47 4624.37 1259.33C4625.59 1263.18 4626.2 1267.9 4626.2 1273.46V1324H4604.96V1273.39C4604.96 1269.87 4604.47 1267.14 4603.5 1265.19C4602.52 1263.23 4601.08 1261.87 4599.17 1261.08C4597.32 1260.25 4595.02 1259.84 4592.29 1259.84C4589.46 1259.84 4586.99 1260.4 4584.89 1261.52C4582.84 1262.65 4581.13 1264.21 4579.77 1266.21C4578.45 1268.17 4577.45 1270.46 4576.76 1273.1C4576.08 1275.73 4575.74 1278.57 4575.74 1281.59Z" fill="#828282"/>
<path d="M4685.09 1302.1C4685.09 1300.59 4684.65 1299.22 4683.77 1298C4682.89 1296.78 4681.25 1295.66 4678.86 1294.63C4676.52 1293.56 4673.12 1292.58 4668.68 1291.7C4664.68 1290.82 4660.94 1289.72 4657.48 1288.4C4654.06 1287.04 4651.08 1285.4 4648.54 1283.5C4646.05 1281.59 4644.1 1279.35 4642.68 1276.76C4641.26 1274.12 4640.56 1271.12 4640.56 1267.75C4640.56 1264.43 4641.26 1261.3 4642.68 1258.38C4644.15 1255.45 4646.22 1252.86 4648.91 1250.61C4651.64 1248.32 4654.96 1246.53 4658.87 1245.26C4662.82 1243.95 4667.27 1243.29 4672.2 1243.29C4679.08 1243.29 4684.99 1244.39 4689.92 1246.58C4694.9 1248.78 4698.71 1251.81 4701.35 1255.67C4704.03 1259.47 4705.38 1263.82 4705.38 1268.7H4684.28C4684.28 1266.65 4683.84 1264.82 4682.96 1263.21C4682.13 1261.55 4680.82 1260.25 4679.01 1259.33C4677.25 1258.35 4674.96 1257.86 4672.12 1257.86C4669.78 1257.86 4667.75 1258.28 4666.04 1259.11C4664.34 1259.89 4663.02 1260.96 4662.09 1262.33C4661.21 1263.65 4660.77 1265.11 4660.77 1266.72C4660.77 1267.95 4661.02 1269.04 4661.5 1270.02C4662.04 1270.95 4662.9 1271.8 4664.07 1272.58C4665.24 1273.37 4666.75 1274.1 4668.61 1274.78C4670.51 1275.42 4672.86 1276 4675.64 1276.54C4681.35 1277.71 4686.46 1279.25 4690.95 1281.15C4695.44 1283.01 4699 1285.55 4701.64 1288.77C4704.28 1291.94 4705.6 1296.12 4705.6 1301.29C4705.6 1304.81 4704.81 1308.03 4703.25 1310.96C4701.69 1313.89 4699.44 1316.46 4696.51 1318.65C4693.58 1320.8 4690.07 1322.49 4685.97 1323.71C4681.91 1324.88 4677.35 1325.46 4672.27 1325.46C4664.9 1325.46 4658.65 1324.15 4653.52 1321.51C4648.44 1318.87 4644.58 1315.53 4641.95 1311.48C4639.36 1307.37 4638.07 1303.17 4638.07 1298.88H4658.06C4658.16 1301.76 4658.89 1304.08 4660.26 1305.84C4661.67 1307.59 4663.46 1308.86 4665.61 1309.64C4667.8 1310.43 4670.17 1310.82 4672.71 1310.82C4675.44 1310.82 4677.71 1310.45 4679.52 1309.72C4681.33 1308.94 4682.7 1307.91 4683.62 1306.64C4684.6 1305.32 4685.09 1303.81 4685.09 1302.1Z" fill="#828282"/>
<path d="M1797 783.7V341.3C1797 323.567 1801.43 307.467 1810.3 293C1819.17 278.533 1830.83 266.867 1845.3 258C1859.77 249.133 1875.87 244.7 1893.6 244.7H2046.9V337.1H1897.1C1894.77 337.1 1892.67 338.033 1890.8 339.9C1889.4 341.3 1888.7 343.167 1888.7 345.5V377.7H2046.9V469.4H1888.7V783.7H1797Z" fill="#214F85"/>
<path d="M2097.08 783.7V377.7H2188.78V783.7H2097.08ZM2097.08 337.1V244.7H2188.78V337.1H2097.08Z" fill="#214F85"/>
<path d="M2348.16 783.7C2330.42 783.7 2314.32 779.267 2299.86 770.4C2285.39 761.533 2273.72 749.867 2264.86 735.4C2255.99 720.933 2251.56 704.833 2251.56 687.1V474.3C2251.56 456.567 2255.99 440.467 2264.86 426C2273.72 411.533 2285.39 399.867 2299.86 391C2314.32 382.133 2330.42 377.7 2348.16 377.7H2567.26C2584.99 377.7 2601.09 382.133 2615.56 391C2630.49 399.867 2642.16 411.533 2650.56 426C2659.42 440.467 2663.86 456.567 2663.86 474.3V687.1C2663.86 704.833 2659.42 720.933 2650.56 735.4C2642.16 749.867 2630.72 761.533 2616.26 770.4C2601.79 779.267 2585.46 783.7 2567.26 783.7H2348.16ZM2351.66 692H2563.76C2566.09 692 2567.96 691.3 2569.36 689.9C2571.22 688.033 2572.16 685.933 2572.16 683.6V477.8C2572.16 475.467 2571.22 473.6 2569.36 472.2C2567.96 470.333 2566.09 469.4 2563.76 469.4H2351.66C2349.32 469.4 2347.22 470.333 2345.36 472.2C2343.96 473.6 2343.26 475.467 2343.26 477.8V683.6C2343.26 685.933 2343.96 688.033 2345.36 689.9C2347.22 691.3 2349.32 692 2351.66 692Z" fill="#214F85"/>
<path d="M2738.33 944.7V377.7H3054.03C3071.76 377.7 3087.86 382.133 3102.33 391C3117.26 399.867 3128.93 411.533 3137.33 426C3146.19 440.467 3150.62 456.567 3150.62 474.3V687.1C3150.62 704.833 3146.19 720.933 3137.33 735.4C3128.93 749.867 3117.26 761.533 3102.33 770.4C3087.86 779.267 3071.76 783.7 3054.03 783.7H2830.03V944.7H2738.33ZM2838.43 692H3050.53C3052.86 692 3054.72 691.3 3056.12 689.9C3057.99 688.033 3058.93 685.933 3058.93 683.6V477.8C3058.93 475.467 3057.99 473.6 3056.12 472.2C3054.72 470.333 3052.86 469.4 3050.53 469.4H2838.43C2836.09 469.4 2833.99 470.333 2832.12 472.2C2830.72 473.6 2830.03 475.467 2830.03 477.8V683.6C2830.03 685.933 2830.72 688.033 2832.12 689.9C2833.99 691.3 2836.09 692 2838.43 692Z" fill="#214F85"/>
<path d="M3298.37 783.7C3280.64 783.7 3264.54 779.267 3250.07 770.4C3235.6 761.533 3223.94 749.867 3215.07 735.4C3206.2 720.933 3201.77 704.833 3201.77 687.1V244H3294.17V683.6C3294.17 685.933 3294.87 688.033 3296.27 689.9C3298.14 691.3 3300.24 692 3302.57 692H3380.27V783.7H3298.37Z" fill="#214F85"/>
<path d="M3528.72 783.7C3510.99 783.7 3494.89 779.267 3480.42 770.4C3465.96 761.533 3454.29 749.867 3445.42 735.4C3436.56 720.933 3432.12 704.833 3432.12 687.1V474.3C3432.12 456.567 3436.56 440.467 3445.42 426C3454.29 411.533 3465.96 399.867 3480.42 391C3494.89 382.133 3510.99 377.7 3528.72 377.7H3747.82C3765.56 377.7 3781.66 382.133 3796.12 391C3811.06 399.867 3822.72 411.533 3831.12 426C3839.99 440.467 3844.42 456.567 3844.42 474.3V687.1C3844.42 704.833 3839.99 720.933 3831.12 735.4C3822.72 749.867 3811.29 761.533 3796.82 770.4C3782.36 779.267 3766.02 783.7 3747.82 783.7H3528.72ZM3532.22 692H3744.32C3746.66 692 3748.52 691.3 3749.92 689.9C3751.79 688.033 3752.72 685.933 3752.72 683.6V477.8C3752.72 475.467 3751.79 473.6 3749.92 472.2C3748.52 470.333 3746.66 469.4 3744.32 469.4H3532.22C3529.89 469.4 3527.79 470.333 3525.92 472.2C3524.52 473.6 3523.82 475.467 3523.82 477.8V683.6C3523.82 685.933 3524.52 688.033 3525.92 689.9C3527.79 691.3 3529.89 692 3532.22 692Z" fill="#214F85"/>
<path d="M4001.12 783.7C3983.39 783.7 3967.29 779.267 3952.82 770.4C3938.35 761.533 3926.69 749.867 3917.82 735.4C3908.95 720.933 3904.52 704.833 3904.52 687.1V253.1H3996.22V377.7H4154.42V469.4H3996.22V683.6C3996.22 685.933 3996.92 688.033 3998.32 689.9C4000.19 691.3 4002.29 692 4004.62 692H4154.42V783.7H4001.12Z" fill="#214F85"/>
<path d="M4215.65 622.7V531H4501.95V622.7H4215.65Z" fill="#214F85"/>
<path d="M4573.77 783.7V244.7H4665.47V377.7H4889.47C4907.21 377.7 4923.31 382.133 4937.77 391C4952.71 399.867 4964.37 411.533 4972.77 426C4981.64 440.467 4986.07 456.567 4986.07 474.3V687.1C4986.07 704.833 4981.64 720.933 4972.77 735.4C4964.37 749.867 4952.71 761.533 4937.77 770.4C4923.31 779.267 4907.21 783.7 4889.47 783.7H4573.77ZM4673.87 692H4885.97C4888.31 692 4890.17 691.3 4891.57 689.9C4893.44 688.033 4894.37 685.933 4894.37 683.6V477.8C4894.37 475.467 4893.44 473.6 4891.57 472.2C4890.17 470.333 4888.31 469.4 4885.97 469.4H4673.87C4671.54 469.4 4669.44 470.333 4667.57 472.2C4666.17 473.6 4665.47 475.467 4665.47 477.8V683.6C4665.47 685.933 4666.17 688.033 4667.57 689.9C4669.44 691.3 4671.54 692 4673.87 692Z" fill="#214F85"/>
<path d="M5133.07 783.7C5115.34 783.7 5099.24 779.267 5084.77 770.4C5070.3 761.533 5058.64 749.867 5049.77 735.4C5040.9 720.933 5036.47 704.833 5036.47 687.1V671.7H5128.17V683.6C5128.17 685.933 5128.87 688.033 5130.27 689.9C5132.14 691.3 5134.24 692 5136.57 692H5348.67C5351 692 5352.87 691.3 5354.27 689.9C5356.14 688.033 5357.07 685.933 5357.07 683.6V635.3C5357.07 632.967 5356.14 631.1 5354.27 629.7C5352.87 627.833 5351 626.9 5348.67 626.9H5133.07C5115.34 626.9 5099.24 622.467 5084.77 613.6C5070.3 604.733 5058.64 593.067 5049.77 578.6C5040.9 564.133 5036.47 548.033 5036.47 530.3V474.3C5036.47 456.567 5040.9 440.467 5049.77 426C5058.64 411.533 5070.3 399.867 5084.77 391C5099.24 382.133 5115.34 377.7 5133.07 377.7H5352.17C5370.37 377.7 5386.7 382.133 5401.17 391C5415.64 399.867 5427.3 411.533 5436.17 426C5445.04 440.467 5449.47 456.567 5449.47 474.3V489.7H5357.07V477.8C5357.07 475.467 5356.14 473.6 5354.27 472.2C5352.87 470.333 5351 469.4 5348.67 469.4H5136.57C5134.24 469.4 5132.14 470.333 5130.27 472.2C5128.87 473.6 5128.17 475.467 5128.17 477.8V526.1C5128.17 528.433 5128.87 530.533 5130.27 532.4C5132.14 533.8 5134.24 534.5 5136.57 534.5H5352.17C5370.37 534.5 5386.7 538.933 5401.17 547.8C5415.64 556.667 5427.3 568.333 5436.17 582.8C5445.04 597.267 5449.47 613.367 5449.47 631.1V687.1C5449.47 704.833 5445.04 720.933 5436.17 735.4C5427.3 749.867 5415.64 761.533 5401.17 770.4C5386.7 779.267 5370.37 783.7 5352.17 783.7H5133.07Z" fill="#214F85"/>
</svg>
